<?xml version="1.0" encoding="UTF-8"?>
<svg version="1.1" xmlns="http://www.w3.org/2000/svg" width="224" height="337">
<path d="M0 0 C1.55460937 0.81984375 1.55460937 0.81984375 3.140625 1.65625 C29.20250388 16.11991053 49.70001298 40.02473806 58.15625 68.8359375 C61.1217078 79.43628468 62.18147676 89.20713246 62.1875 100.1875 C62.19974609 101.34314453 62.21199219 102.49878906 62.22460938 103.68945312 C62.24268478 114.42021721 60.9747505 124.47265411 57.25 134.5625 C56.98759521 135.28574463 56.72519043 136.00898926 56.45483398 136.75415039 C51.73381668 149.39847456 44.45559784 160.06749637 35.6875 170.25 C24.02353849 183.85762079 15.96441951 197.35225919 10.015625 214.31640625 C3.98298704 230.25649193 -4.80242594 241.13261208 -19.9375 248.80078125 C-38.45941556 256.05362319 -63.60580986 250.59751006 -81.1875 243.0625 C-83 242 -83 242 -85 239 C-84.44444444 233.44444444 -84.44444444 233.44444444 -83 232 C-78.28518522 231.67677872 -74.44855699 232.55304319 -69.9375 233.875 C-54.83798727 238.07898906 -35.95349152 241.61309526 -21 235 C-10.89672165 229.04077819 -5.22382883 219.33089177 -2.23046875 208.1171875 C-1.93076172 206.72886719 -1.93076172 206.72886719 -1.625 205.3125 C1.34556406 192.2142234 7.66152539 180.41950527 16 170 C36.63560539 143.12006757 48.77122899 118.17620002 44.70263672 83.46289062 C40.44704688 57.32222843 22.40219414 33.80515448 1.54296875 18.45703125 C-17.11455166 5.23374008 -38.42148611 -0.41436289 -61.15234375 3.21875 C-80.74488628 7.19693122 -99.04112605 15.22001582 -113 30 C-113.78117187 30.60585938 -114.56234375 31.21171875 -115.3671875 31.8359375 C-130.13985647 43.97845769 -142.6033038 66.18363428 -144.79296875 85.2890625 C-146.21006533 110.68985019 -143.61022057 131.56788789 -126.20703125 151.18359375 C-121.73914445 156.12023538 -117.15930131 160.87081155 -112.3125 165.4375 C-106.77873132 170.90096671 -102.91902048 177.33536438 -99 184 C-98.51660156 184.82113281 -98.03320312 185.64226562 -97.53515625 186.48828125 C-89.7166916 200.95119189 -84.17383902 219.51084056 -86 236 C-88 238 -88 238 -90.5 238.3125 C-91.7375 238.1578125 -91.7375 238.1578125 -93 238 C-95.32133015 234.51800477 -95.33913132 232.69315715 -95.6875 228.5625 C-98.41482163 203.74202205 -111.58823785 183.05919209 -129.04199219 166.00634766 C-135.05054006 160.08420276 -140.17410049 153.92451865 -145 147 C-145.85464844 145.81470703 -145.85464844 145.81470703 -146.7265625 144.60546875 C-158.29413403 127.19479058 -160.4083166 104.01753497 -157.50390625 83.7734375 C-156.82658979 80.44425492 -155.99106126 77.24892261 -155 74 C-154.48953125 72.19595703 -154.48953125 72.19595703 -153.96875 70.35546875 C-148.04698392 50.92967529 -136.62339702 34.03283675 -122 20 C-121.34 20 -120.68 20 -120 20 C-119.505 18.515 -119.505 18.515 -119 17 C-85.71713167 -12.09381766 -39.68236523 -21.18786922 0 0 Z " fill="#DAD712" transform="translate(160,13)"/>
<path d="M0 0 C3.31557086 4.97335629 3.14927395 9.83630215 3.1328125 15.66796875 C3.13417709 16.41232681 3.13554169 17.15668488 3.13694763 17.92359924 C3.13897171 20.34494488 3.13265792 22.76616686 3.125 25.1875 C3.12378143 26.01213745 3.12256287 26.8367749 3.12130737 27.68640137 C3.06044408 62.77260189 3.06044408 62.77260189 1.45703125 75.5859375 C0.78182912 81.19820253 1.015939 86.78335784 1.21484375 92.421875 C1.22902344 93.22882813 1.24320313 94.03578125 1.2578125 94.8671875 C1.2798877 95.59019043 1.30196289 96.31319336 1.32470703 97.05810547 C0.89705975 99.61562913 0.07517965 100.48313255 -2 102 C-5.4375 102 -5.4375 102 -9 101 C-14.58803995 95.26490636 -14.28143513 90.32753189 -14.18701172 82.66601562 C-13.96059696 74.79183662 -12.72012145 67.03042219 -11.5625 59.25 C-11.1004094 56.06842425 -10.64418088 52.88603929 -10.19140625 49.703125 C-10.0832106 48.94283997 -9.97501495 48.18255493 -9.86354065 47.39923096 C-8.57501826 38.18750067 -7.82774215 29.0540885 -7.9375 19.75 C-7.94201172 18.99332031 -7.94652344 18.23664063 -7.95117188 17.45703125 C-7.96268483 15.63798445 -7.9806033 13.81897982 -8 12 C-10.23145946 13.41315701 -12.46015955 14.83037642 -14.6875 16.25 C-15.31333984 16.64574219 -15.93917969 17.04148438 -16.58398438 17.44921875 C-20.23682142 19.78244451 -23.65017023 22.23865384 -27 25 C-35.15656948 31.38467557 -35.15656948 31.38467557 -40.375 31.5 C-44 31 -44 31 -47 29 C-46.66204331 38.88547675 -45.14606083 47.94465233 -42.72631836 57.49609375 C-42.18692821 59.6272592 -41.66538926 61.76220167 -41.14648438 63.8984375 C-39.34567294 71.21592995 -37.32887035 78.37995436 -34.7277832 85.46240234 C-33.95804321 88.14629281 -33.71735021 90.2243023 -34 93 C-36 95 -36 95 -38.41796875 95.078125 C-41 94 -41 94 -42.73828125 90.984375 C-43.28880652 89.58277299 -43.8112033 88.16995348 -44.3125 86.75 C-44.74526245 85.57135376 -44.74526245 85.57135376 -45.18676758 84.36889648 C-52.63397995 63.39864355 -57.51933474 42.09745652 -60 20 C-60.1045752 19.11779785 -60.20915039 18.2355957 -60.31689453 17.32666016 C-61.41027122 7.73346813 -61.41027122 7.73346813 -61 4 C-59.15625 2.0625 -59.15625 2.0625 -57 1 C-52.4426365 1.9114727 -50.56119093 4.27463137 -48 8 C-45.95022119 11.30495201 -43.95748521 14.63965038 -42 18 C-34.37223694 16.6790631 -28.82576786 12.20627872 -22.6328125 7.8125 C-8.56879314 -1.86955487 -8.56879314 -1.86955487 0 0 Z " fill="#D9D60F" transform="translate(139,145)"/>
<path d="M0 0 C0.66 0.66 1.32 1.32 2 2 C1.64700993 5.44165321 0.95418308 7.06872538 -1 10 C-0.484375 10.4125 0.03125 10.825 0.5625 11.25 C1.036875 11.8275 1.51125 12.405 2 13 C1.19619648 18.83366491 -2.99144163 23.33501083 -7.375 26.96875 C-17.60187221 34.32710928 -26.98538337 37.49027033 -39.625 35.609375 C-47.50208303 33.68933601 -53.01731439 29.20921054 -57.671875 22.640625 C-60.71449302 17.27331007 -61.57590549 12.47456872 -61.6640625 6.34765625 C-61 4 -61 4 -59.078125 2.09765625 C-54.51290013 0.4697017 -50.80306685 1.48421845 -46.125 2.375 C-32.92751812 4.55829835 -21.25094583 3.5445674 -8.2421875 0.62109375 C-5.35513135 0.06803119 -2.92068964 -0.28583262 0 0 Z M-18.84863281 16.49389648 C-21.43090677 17.10136969 -23.76952126 17.11239155 -26.421875 17.09765625 C-27.44667969 17.09443359 -28.47148438 17.09121094 -29.52734375 17.08789062 C-30.59082031 17.07951172 -31.65429688 17.07113281 -32.75 17.0625 C-33.82894531 17.05798828 -34.90789062 17.05347656 -36.01953125 17.04882812 C-38.67974383 17.03705727 -41.33984365 17.02061399 -44 17 C-40.16691338 20.98597326 -36.82106227 22.12461081 -31.3125 22.375 C-25.08220158 22.26291067 -18.48853404 20.48853404 -14 16 C-16.83585502 15.87094236 -16.83585502 15.87094236 -18.84863281 16.49389648 Z " fill="#D9D506" transform="translate(138,298)"/>
<path d="M0 0 C1.45823212 -0.0270043 2.91660675 -0.04639787 4.375 -0.0625 C5.18710938 -0.07410156 5.99921875 -0.08570313 6.8359375 -0.09765625 C9 0 9 0 11 1 C12.23024017 5.15583505 12.14494193 9.37097265 12.1328125 13.66796875 C12.13417709 14.41232681 12.13554169 15.15668488 12.13694763 15.92359924 C12.13897171 18.34494488 12.13265792 20.76616686 12.125 23.1875 C12.12378143 24.01213745 12.12256287 24.8367749 12.12130737 25.68640137 C12.06044408 60.77260189 12.06044408 60.77260189 10.45703125 73.5859375 C9.78182912 79.19820253 10.015939 84.78335784 10.21484375 90.421875 C10.22902344 91.22882813 10.24320313 92.03578125 10.2578125 92.8671875 C10.29092529 93.95169189 10.29092529 93.95169189 10.32470703 95.05810547 C9.89705975 97.61562913 9.07517965 98.48313255 7 100 C3.5625 100 3.5625 100 0 99 C-5.59358173 93.25921875 -5.27667378 88.31650862 -5.18261719 80.6484375 C-4.962224 72.8636739 -3.75973608 65.19363777 -2.625 57.5 C-2.39999361 55.92593071 -2.17603281 54.3517116 -1.953125 52.77734375 C-1.6228756 50.44570121 -1.29199771 48.11417747 -0.95706177 45.78320312 C0.12926567 38.20066393 1.07353741 30.60360321 2 23 C2.21019937 21.3124079 2.42099875 19.62489024 2.6328125 17.9375 C2.79523438 16.638125 2.95765625 15.33875 3.125 14 C3.5625 10.5 3.5625 10.5 4 7 C2.89527344 7.31710938 1.79054687 7.63421875 0.65234375 7.9609375 C-1.89348434 8.68520517 -4.42747826 9.38259478 -7 10 C-7 10.66 -7 11.32 -7 12 C-7.66 12 -8.32 12 -9 12 C-9 12.66 -9 13.32 -9 14 C-10.65 13.67 -12.3 13.34 -14 13 C-14.33 12.01 -14.66 11.02 -15 10 C-13.68 10 -12.36 10 -11 10 C-10.67 8.68 -10.34 7.36 -10 6 C-8.68 6 -7.36 6 -6 6 C-6 5.34 -6 4.68 -6 4 C-3 2 -3 2 0 2 C0 1.34 0 0.68 0 0 Z " fill="#D9D506" transform="translate(130,147)"/>
<path d="M0 0 C3.04981901 0.793093 5.98243865 1.8477432 8.9375 2.9375 C28.66053741 10.14753318 50.04705866 6.91264768 70.28515625 3.25 C71.42855469 3.04375 72.57195312 2.8375 73.75 2.625 C74.69359375 2.43164062 75.6371875 2.23828125 76.609375 2.0390625 C79.66559657 1.98912424 80.79495687 2.97012385 83 5 C82.875 7.25 82.875 7.25 82 10 C77.41344677 13.67210025 72.8885544 15.17726306 67.25 16.625 C66.12851563 16.93050781 66.12851563 16.93050781 64.984375 17.2421875 C62.66340284 17.86217321 60.33573493 18.43833263 58 19 C57.23260498 19.19198975 56.46520996 19.38397949 55.67456055 19.58178711 C48.55934456 21.20569983 41.58994772 21.3459437 34.3125 21.3125 C33.07459717 21.30831055 31.83669434 21.30412109 30.5612793 21.29980469 C16.22035751 21.12274464 0.56126994 19.82530169 -10 9 C-11.125 6.4375 -11.125 6.4375 -11 4 C-8.01434403 -0.60288629 -5.18347638 -0.38396121 0 0 Z " fill="#D9D505" transform="translate(76,261)"/>
<path d="M0 0 C4.07904775 0.5988137 7.86763017 1.7414966 11.78808594 2.99682617 C29.15635858 8.42009806 46.45029468 7.1169428 63.953125 2.90234375 C68.72327934 1.95686495 68.72327934 1.95686495 71.875 3.125 C73.37775341 6.13050681 73.46265005 7.79498307 72.875 11.125 C63.8762445 20.36195785 45.64737683 22.05559939 33.50390625 22.25 C28.93983076 22.20567923 24.55424027 21.65469646 20.0625 20.875 C19.28495361 20.74150146 18.50740723 20.60800293 17.70629883 20.47045898 C-0.84006152 17.11459694 -0.84006152 17.11459694 -6.125 11.125 C-7.6875 8.1875 -7.6875 8.1875 -8.125 5.125 C-6.32131793 0.88634714 -4.44600698 -0.26922188 0 0 Z " fill="#DBD712" transform="translate(76.125,278.875)"/>
<path d="M0 0 C0 0.66 0 1.32 0 2 C1.32 2 2.64 2 4 2 C4 2.66 4 3.32 4 4 C5.65 4.33 7.3 4.66 9 5 C6.35261084 6.4606285 5.10551666 7 2 7 C1.67 8.32 1.34 9.64 1 11 C-2.92321974 10.59133128 -5.87077076 10.05214513 -9.5625 8.5625 C-21.44591289 3.87349375 -35.11804228 4.34127796 -47.59765625 5.77734375 C-51.4069403 6.13039935 -55.1768865 6.06166312 -59 6 C-59 6.66 -59 7.32 -59 8 C-60.41538717 8.33872513 -61.83237963 8.67074624 -63.25 9 C-64.03890625 9.185625 -64.8278125 9.37125 -65.640625 9.5625 C-68 10 -68 10 -72 10 C-72 10.66 -72 11.32 -72 12 C-73.65 12 -75.3 12 -77 12 C-77.33 12.99 -77.66 13.98 -78 15 C-78.556875 14.608125 -79.11375 14.21625 -79.6875 13.8125 C-80.450625 13.544375 -81.21375 13.27625 -82 13 C-84.53673288 14.3553326 -84.53673288 14.3553326 -87 16 C-88.32 16 -89.64 16 -91 16 C-88.61325443 9.57414654 -86.66162977 5.88354057 -80.40405273 2.91845703 C-79.67259033 2.59474121 -78.94112793 2.27102539 -78.1875 1.9375 C-77.42703369 1.59315918 -76.66656738 1.24881836 -75.88305664 0.89404297 C-51.90277236 -9.6864524 -23.91979431 -11.89949364 0 0 Z " fill="#D9D508" transform="translate(148,9)"/>
<path d="M0 0 C0 0.33 0 0.66 0 1 C-0.98097656 0.97679687 -1.96195312 0.95359375 -2.97265625 0.9296875 C-30.39403517 0.47375008 -56.62509163 7.38052242 -76.875 26.75 C-77.926875 27.86375 -77.926875 27.86375 -79 29 C-79.78117187 29.60585938 -80.56234375 30.21171875 -81.3671875 30.8359375 C-88.8373071 36.97606548 -94.13083699 45.42475704 -99.16894531 53.57958984 C-100.09058363 55.06694924 -101.04227293 56.53561821 -102 58 C-102.33 58 -102.66 58 -103 58 C-103 56.35 -103 54.7 -103 53 C-102.34 53 -101.68 53 -101 53 C-101.33 50.03 -101.66 47.06 -102 44 C-103.98 44.495 -103.98 44.495 -106 45 C-106.33 46.32 -106.66 47.64 -107 49 C-107.99 49 -108.98 49 -110 49 C-110.103125 49.66 -110.20625 50.32 -110.3125 51 C-111.19213564 54.83841009 -112.56969896 58.33096691 -114 62 C-114.66 62 -115.32 62 -116 62 C-116.185625 63.0828125 -116.185625 63.0828125 -116.375 64.1875 C-116.9904931 66.95721894 -117.88444374 69.3970354 -119 72 C-120.32070349 68.03788953 -119.02817094 65.73710249 -117.5 62.0625 C-117.22591309 61.39444336 -116.95182617 60.72638672 -116.66943359 60.03808594 C-111.04467603 46.70509201 -102.79842768 35.00585031 -93.125 24.3125 C-92.64836914 23.78269531 -92.17173828 23.25289062 -91.68066406 22.70703125 C-90.4974194 21.42950076 -89.2532444 20.20893778 -88 19 C-87.34 19 -86.68 19 -86 19 C-85.505 17.515 -85.505 17.515 -85 16 C-83.16284228 14.44855888 -81.25522443 12.97951794 -79.3125 11.5625 C-78.27738281 10.80066406 -77.24226563 10.03882813 -76.17578125 9.25390625 C-67.36395147 3 -67.36395147 3 -65 3 C-65.66 4.98 -66.32 6.96 -67 9 C-67.66 9 -68.32 9 -69 9 C-69 9.66 -69 10.32 -69 11 C-66.53917533 10.04301263 -64.18244362 9.10195379 -61.875 7.8125 C-60 7 -60 7 -57 8 C-56.505 8.495 -56.505 8.495 -56 9 C-55.67 8.34 -55.34 7.68 -55 7 C-53.35 7 -51.7 7 -50 7 C-50 6.34 -50 5.68 -50 5 C-45.71 4.34 -41.42 3.68 -37 3 C-37 2.34 -37 1.68 -37 1 C-9.8260274 -2.18356164 -9.8260274 -2.18356164 0 0 Z " fill="#DBD81D" transform="translate(126,14)"/>
<path d="M0 0 C14.09981627 11.39985145 22.72213819 25.12402739 29 42 C29.36996094 42.98742187 29.73992187 43.97484375 30.12109375 44.9921875 C33.85728728 55.53016926 36.24411458 66.76637718 35 78 C33 80 33 80 30.5 80.3125 C29.675 80.209375 28.85 80.10625 28 80 C25.67866985 76.51800477 25.66086868 74.69315715 25.3125 70.5625 C22.40339184 44.08764127 7.69700172 22.9167559 -11 5 C-10.01 5 -9.02 5 -8 5 C-7.34 5.66 -6.68 6.32 -6 7 C-5.38125 7.12375 -4.7625 7.2475 -4.125 7.375 C-1.2842243 8.21052226 0.04507731 9.83562131 2 12 C2.33 11.67 2.66 11.34 3 11 C2.01 7.37 1.02 3.74 0 0 Z " fill="#DBD923" transform="translate(39,171)"/>
<path d="M0 0 C22.17399027 3.51190269 45.46805033 23.15299104 58.4375 40.8125 C59.63778047 42.53281985 60.8268908 44.26103812 62 46 C62.45503906 46.66773438 62.91007812 47.33546875 63.37890625 48.0234375 C64.26593602 49.34007402 65.13606281 50.66809683 66 52 C65.505 52.99 65.505 52.99 65 54 C63.515 53.01 63.515 53.01 62 52 C62 51.34 62 50.68 62 50 C60.68 50 59.36 50 58 50 C58.103125 49.071875 58.20625 48.14375 58.3125 47.1875 C58.209375 46.135625 58.10625 45.08375 58 44 C56.35666496 42.96210419 54.68756133 41.96432076 53 41 C52.33333333 39 51.66666667 37 51 35 C48.35262263 33.03143734 46.12734308 32.04244769 43 31 C41.00214565 35.1205746 40.82164485 38.45194365 41 43 C41.99 43 42.98 43 44 43 C44.495 45.475 44.495 45.475 45 48 C45.66 48 46.32 48 47 48 C47.495 50.475 47.495 50.475 48 53 C44.49236569 49.55511407 41.19803056 45.99596514 37.9375 42.3125 C29.79551214 33.31852471 20.72481218 25.75718445 10 20 C9.07703125 19.48695312 8.1540625 18.97390625 7.203125 18.4453125 C-0.32212423 14.44379108 -7.77134281 12.06933687 -16 10 C-16 9.67 -16 9.34 -16 9 C-10.6059486 8.71103296 -6.92701938 9.18249385 -1.96484375 11.265625 C0.99515838 12.37194786 3.86570541 12.67351098 7 13 C7.33 12.01 7.66 11.02 8 10 C10.5625 8.8125 10.5625 8.8125 13 8 C12.01 7.67 11.02 7.34 10 7 C10 6.34 10 5.68 10 5 C8.68 5 7.36 5 6 5 C6 4.34 6 3.68 6 3 C4.02 2.34 2.04 1.68 0 1 C0 0.67 0 0.34 0 0 Z " fill="#DBD818" transform="translate(142,6)"/>
<path d="M0 0 C3.73321278 0.19852923 6.85584372 1.00394511 10.44140625 2.0546875 C28.91438818 7.19791399 46.40936775 8.50769079 64.37890625 1.1796875 C64.37890625 2.1696875 64.37890625 3.1596875 64.37890625 4.1796875 C62.39890625 4.5096875 60.41890625 4.8396875 58.37890625 5.1796875 C58.37890625 5.8396875 58.37890625 6.4996875 58.37890625 7.1796875 C57.38890625 7.8396875 56.39890625 8.4996875 55.37890625 9.1796875 C55.37890625 10.1696875 55.37890625 11.1596875 55.37890625 12.1796875 C55.04890625 12.5096875 54.71890625 12.8396875 54.37890625 13.1796875 C55.36890625 13.5096875 56.35890625 13.8396875 57.37890625 14.1796875 C57.04890625 14.5096875 56.71890625 14.8396875 56.37890625 15.1796875 C57.69890625 15.1796875 59.01890625 15.1796875 60.37890625 15.1796875 C60.37890625 14.5196875 60.37890625 13.8596875 60.37890625 13.1796875 C61.24515625 12.9321875 62.11140625 12.6846875 63.00390625 12.4296875 C66.57814485 11.10589543 69.25990402 9.34942818 72.37890625 7.1796875 C73.69806445 6.48539371 75.02540031 5.80438255 76.37890625 5.1796875 C72.85769753 9.87684706 69.88718466 12.38300551 64.50390625 14.9921875 C62.74433594 15.86810547 62.74433594 15.86810547 60.94921875 16.76171875 C42.22427701 24.19842975 17.03201883 18.88816432 -0.80859375 11.2421875 C-2.62109375 10.1796875 -2.62109375 10.1796875 -4.62109375 7.1796875 C-3.93006734 0.26942339 -3.93006734 0.26942339 0 0 Z " fill="#D9D60D" transform="translate(79.62109375,244.8203125)"/>
<path d="M0 0 C0 0.99 0 1.98 0 3 C-2.97 2.67 -5.94 2.34 -9 2 C-9.33 3.32 -9.66 4.64 -10 6 C-11.65 6 -13.3 6 -15 6 C-15 6.66 -15 7.32 -15 8 C-16.32 8 -17.64 8 -19 8 C-19.33 9.32 -19.66 10.64 -20 12 C-21.32 12 -22.64 12 -24 12 C-21.94766315 14.2477975 -20.99332739 15.0022242 -18 16 C-18 15.34 -18 14.68 -18 14 C-17.34 14 -16.68 14 -16 14 C-16 13.34 -16 12.68 -16 12 C-9.5 9 -9.5 9 -5 9 C-4.97274659 10.7290774 -4.95349013 12.45828176 -4.9375 14.1875 C-4.92589844 15.15042969 -4.91429687 16.11335938 -4.90234375 17.10546875 C-4.99513378 19.85576513 -5.37888315 22.32479591 -6 25 C-6.33 25 -6.66 25 -7 25 C-7.33 20.71 -7.66 16.42 -8 12 C-10.23145946 13.41315701 -12.46015955 14.83037642 -14.6875 16.25 C-15.31333984 16.64574219 -15.93917969 17.04148438 -16.58398438 17.44921875 C-20.23682142 19.78244451 -23.65017023 22.23865384 -27 25 C-35.14257367 31.37372014 -35.14257367 31.37372014 -40.1875 31.625 C-44.629683 30.89677328 -46.53989594 29.76808325 -50 27 C-49.67 26.01 -49.34 25.02 -49 24 C-48.67 24.474375 -48.34 24.94875 -48 25.4375 C-44.90186733 27.85791615 -41.87973208 27.68198917 -38 28 C-38 27.34 -38 26.68 -38 26 C-38.66 25.67 -39.32 25.34 -40 25 C-39.01 23.68 -38.02 22.36 -37 21 C-38.0725 20.95875 -39.145 20.9175 -40.25 20.875 C-44 20 -44 20 -46.4375 16.9375 C-46.953125 15.968125 -47.46875 14.99875 -48 14 C-48.99 14.33 -49.98 14.66 -51 15 C-50.979375 14.0925 -50.95875 13.185 -50.9375 12.25 C-50.9889755 9.57327412 -51.2215017 7.53011948 -52 5 C-54.97 4.505 -54.97 4.505 -58 4 C-58.02714735 6.22909871 -58.04646254 8.45829367 -58.0625 10.6875 C-58.07410156 11.92886719 -58.08570312 13.17023438 -58.09765625 14.44921875 C-58.01415526 17.48531474 -57.62118758 20.04935901 -57 23 C-56.93540958 24.76977761 -56.91388935 26.54170152 -56.9375 28.3125 C-56.94652344 29.19550781 -56.95554687 30.07851562 -56.96484375 30.98828125 C-56.97644531 31.65214844 -56.98804687 32.31601563 -57 33 C-58.57120438 30.17151261 -59.31305897 27.87776121 -59.6328125 24.6640625 C-59.75849609 23.43816406 -59.75849609 23.43816406 -59.88671875 22.1875 C-59.96535156 21.341875 -60.04398437 20.49625 -60.125 19.625 C-60.21136719 18.78710938 -60.29773438 17.94921875 -60.38671875 17.0859375 C-61.26670642 8.20225242 -61.26670642 8.20225242 -61 4 C-59.3125 2 -59.3125 2 -57 1 C-52.4426365 1.9114727 -50.56119093 4.27463137 -48 8 C-45.95022119 11.30495201 -43.95748521 14.63965038 -42 18 C-34.37223694 16.6790631 -28.82576786 12.20627872 -22.6328125 7.8125 C-9.05173201 -1.53708657 -9.05173201 -1.53708657 0 0 Z " fill="#DCD822" transform="translate(139,145)"/>
<path d="M0 0 C0.99 0.33 1.98 0.66 3 1 C3 1.99 3 2.98 3 4 C4.32 4.66 5.64 5.32 7 6 C7 6.66 7 7.32 7 8 C9.5625718 8.02710123 12.12485365 8.04688771 14.6875 8.0625 C15.40873047 8.07087891 16.12996094 8.07925781 16.87304688 8.08789062 C20.73247402 8.10551358 24.24191523 7.85113418 28 7 C30.73137522 6.78837994 33.24441251 6.8644793 36 7 C38.13562754 9.13562754 38.63318342 10.06546739 39 13 C37 15 37 15 34.375 15.125 C33.59125 15.08375 32.8075 15.0425 32 15 C32 15.66 32 16.32 32 17 C31.01 17 30.02 17 29 17 C29 17.66 29 18.32 29 19 C21.56842165 20.65146186 11.94355827 21.55645667 5 18 C2.51715218 15.79302416 0.48982201 13.97964402 -1 11 C-0.34 11 0.32 11 1 11 C0.67 10.01 0.34 9.02 0 8 C0.33 7.34 0.66 6.68 1 6 C0.71887936 3.99199544 0.38932033 1.98985949 0 0 Z " fill="#D8D509" transform="translate(89,312)"/>
<path d="M0 0 C1.87172476 3.33562656 2.72978514 6.59410754 3.5859375 10.3125 C3.87726563 11.55386719 4.16859375 12.79523438 4.46875 14.07421875 C4.77147675 15.3826638 5.07355743 16.6912585 5.375 18 C7.28866682 26.3066688 9.30681998 34.40578568 12.25244141 42.4140625 C13.03495688 45.12092204 13.28851108 47.19971029 13 50 C11 52 11 52 8.59765625 52.13671875 C5.59783122 50.82401336 5.39661834 50.33490273 4.12109375 47.45703125 C3.537375 45.91720405 2.97746462 44.36820999 2.4375 42.8125 C2.14230469 42.00546631 1.84710938 41.19843262 1.54296875 40.36694336 C-5.54921408 20.64764225 -5.54921408 20.64764225 -4 16 C-3.67 16.66 -3.34 17.32 -3 18 C-2.01 17.67 -1.02 17.34 0 17 C0.07183959 12.90514362 0.02711601 9.18679921 -0.5625 5.125 C-1 2 -1 2 0 0 Z " fill="#DBD928" transform="translate(92,188)"/>
<path d="M0 0 C2.54764436 1.27382218 3.5399926 2.56665433 5 5 C4.22423429 10.94753708 -0.53077554 15.72241352 -4.875 19.5 C-5.926875 20.2425 -5.926875 20.2425 -7 21 C-7.66 20.67 -8.32 20.34 -9 20 C-9 18.68 -9 17.36 -9 16 C-9.495 15.01 -9.495 15.01 -10 14 C-11.8253125 13.9690625 -11.8253125 13.9690625 -13.6875 13.9375 C-14.37199219 13.92589844 -15.05648437 13.91429687 -15.76171875 13.90234375 C-18.04644278 13.94317201 -18.04644278 13.94317201 -20.42578125 14.49609375 C-23.17698309 15.03464464 -25.6987879 15.13286857 -28.5 15.125 C-29.87671875 15.12886719 -29.87671875 15.12886719 -31.28125 15.1328125 C-33.95004454 15.00244035 -36.39865153 14.59378606 -39 14 C-39 13.34 -39 12.68 -39 12 C-41.475 11.01 -41.475 11.01 -44 10 C-44 9.01 -44 8.02 -44 7 C-43.37134033 7.01047363 -42.74268066 7.02094727 -42.0949707 7.03173828 C-20.73680068 8.34998233 -20.73680068 8.34998233 -1.48828125 0.92578125 C-0.99714844 0.62027344 -0.50601563 0.31476563 0 0 Z M-15.84863281 8.49389648 C-18.43090677 9.10136969 -20.76952126 9.11239155 -23.421875 9.09765625 C-24.44667969 9.09443359 -25.47148438 9.09121094 -26.52734375 9.08789062 C-27.59082031 9.07951172 -28.65429688 9.07113281 -29.75 9.0625 C-30.82894531 9.05798828 -31.90789062 9.05347656 -33.01953125 9.04882812 C-35.67974383 9.03705727 -38.33984365 9.02061399 -41 9 C-37.16691338 12.98597326 -33.82106227 14.12461081 -28.3125 14.375 C-22.08220158 14.26291067 -15.48853404 12.48853404 -11 8 C-13.83585502 7.87094236 -13.83585502 7.87094236 -15.84863281 8.49389648 Z " fill="#D8D506" transform="translate(135,306)"/>
<path d="M0 0 C0.33 0.99 0.66 1.98 1 3 C2.65 3.33 4.3 3.66 6 4 C9.85600113 14.51636672 12.24676429 25.74245182 11 37 C9 39 9 39 6.5 39.3125 C5.675 39.209375 4.85 39.10625 4 39 C1.76586987 35.64880481 1.76152238 34.5822245 1.8046875 30.67578125 C1.81113281 29.64775391 1.81757812 28.61972656 1.82421875 27.56054688 C1.84097656 26.48869141 1.85773438 25.41683594 1.875 24.3125 C1.88402344 23.22904297 1.89304687 22.14558594 1.90234375 21.02929688 C1.9259266 18.3526429 1.95883874 15.67643203 2 13 C1.34 13 0.68 13 0 13 C-0.50336767 11.37604003 -1.00258976 9.75079459 -1.5 8.125 C-1.7784375 7.22007812 -2.056875 6.31515625 -2.34375 5.3828125 C-3 3 -3 3 -3 1 C-2.01 0.67 -1.02 0.34 0 0 Z " fill="#D9D509" transform="translate(63,212)"/>
<path d="M0 0 C0.33 0 0.66 0 1 0 C1.18993163 35.71299042 1.18993163 35.71299042 0.5625 51.75 C0.52326416 52.7694873 0.48402832 53.78897461 0.44360352 54.83935547 C0.25573635 59.11522657 -0.01146095 63.33850496 -0.54296875 67.5859375 C-1.21817088 73.19820253 -0.984061 78.78335784 -0.78515625 84.421875 C-0.77097656 85.22882813 -0.75679687 86.03578125 -0.7421875 86.8671875 C-0.70907471 87.95169189 -0.70907471 87.95169189 -0.67529297 89.05810547 C-1.10294025 91.61562913 -1.92482035 92.48313255 -4 94 C-7.4375 94 -7.4375 94 -11 93 C-15.53982579 88.34070511 -16.19333146 84.97381215 -16.1875 78.6875 C-16.18814453 77.97851562 -16.18878906 77.26953125 -16.18945312 76.5390625 C-16.1242579 69.91285697 -15.24784659 63.50662866 -14 57 C-13.67 57 -13.34 57 -13 57 C-12.93264799 60.83906444 -12.90453092 64.39138461 -13.5 68.1875 C-14.31042892 74.36702055 -14.90764366 81.08535366 -13.48828125 87.20703125 C-11.05155205 90.14261839 -7.5690408 90.90438747 -4 92 C-4.00523682 91.19256348 -4.01047363 90.38512695 -4.01586914 89.55322266 C-4.03659929 85.91048962 -4.04964749 82.26776898 -4.0625 78.625 C-4.07087891 77.35398437 -4.07925781 76.08296875 -4.08789062 74.7734375 C-4.09111328 73.56171875 -4.09433594 72.35 -4.09765625 71.1015625 C-4.10289307 69.98088379 -4.10812988 68.86020508 -4.11352539 67.70556641 C-4 65 -4 65 -3 63 C-2.85949049 61.42795928 -2.77429187 59.85076754 -2.71875 58.2734375 C-2.68136719 57.32339844 -2.64398438 56.37335938 -2.60546875 55.39453125 C-2.57066406 54.39808594 -2.53585938 53.40164062 -2.5 52.375 C-2.43024214 50.42436364 -2.35737591 48.47383572 -2.28125 46.5234375 C-2.25095703 45.65638184 -2.22066406 44.78932617 -2.18945312 43.89599609 C-1.99586291 40.93676011 -1.6150762 38.02286723 -1.2328186 35.0831604 C-0.85805594 31.72994584 -0.76635862 28.37024345 -0.68359375 25 C-0.66281265 24.2788501 -0.64203156 23.5577002 -0.62062073 22.81469727 C-0.55598066 20.54321493 -0.49664449 18.27163138 -0.4375 16 C-0.3942331 14.44660471 -0.35061642 12.89321913 -0.30664062 11.33984375 C-0.20038904 7.55999576 -0.0988892 3.78004748 0 0 Z " fill="#EAE87B" transform="translate(141,153)"/>
<path d="M0 0 C2.5 1.25 2.5 1.25 5 3 C5 4.32 5 5.64 5 7 C7.31 7.66 9.62 8.32 12 9 C12 6.36 12 3.72 12 1 C14.3223428 3.8762349 15.86565842 6.63780422 17.25 10.0625 C17.60578125 10.91972656 17.9615625 11.77695313 18.328125 12.66015625 C19 15 19 15 18 18 C17.01 17.67 16.02 17.34 15 17 C14.67 16.34 14.34 15.68 14 15 C13.01 15 12.02 15 11 15 C11.2165625 15.53109375 11.433125 16.0621875 11.65625 16.609375 C11.9346875 17.31578125 12.213125 18.0221875 12.5 18.75 C12.7784375 19.44609375 13.056875 20.1421875 13.34375 20.859375 C14 23 14 23 14 27 C14.66 27 15.32 27 16 27 C16 30.96 16 34.92 16 39 C14.56698799 36.13397598 13.47419626 33.65310013 12.484375 30.65625 C12.2054541 29.82730225 11.9265332 28.99835449 11.63916016 28.14428711 C11.3457373 27.27167236 11.05231445 26.39905762 10.75 25.5 C8.33508026 18.43320238 5.69906632 11.80280542 2.1640625 5.21484375 C1 3 1 3 0 0 Z " fill="#DBD926" transform="translate(49,198)"/>
<path d="M0 0 C0.99 0.33 1.98 0.66 3 1 C2.67 1.99 2.34 2.98 2 4 C2.63808594 4.06058594 3.27617188 4.12117188 3.93359375 4.18359375 C4.75988281 4.26738281 5.58617188 4.35117187 6.4375 4.4375 C7.67306641 4.55931641 7.67306641 4.55931641 8.93359375 4.68359375 C11 5 11 5 12 6 C13.41117702 6.12209924 14.82820459 6.17770872 16.24438477 6.20532227 C17.59567223 6.2352401 17.59567223 6.2352401 18.97425842 6.26576233 C19.95341721 6.28247482 20.93257599 6.29918732 21.94140625 6.31640625 C22.93881332 6.33718735 23.9362204 6.35796844 24.96385193 6.37937927 C28.16332843 6.44498637 31.36288982 6.50381134 34.5625 6.5625 C36.72592039 6.60567462 38.88933206 6.64928855 41.05273438 6.69335938 C46.36839874 6.80067903 51.68414834 6.90242427 57 7 C57 7.33 57 7.66 57 8 C49.07692348 9.98048572 41.45750582 10.34993059 33.3125 10.3125 C32.07459717 10.30831055 30.83669434 10.30412109 29.5612793 10.29980469 C17.80177947 10.15461614 5.27071974 9.4387507 -5 3 C-5.33 2.34 -5.66 1.68 -6 1 C-4.7934375 1.0309375 -4.7934375 1.0309375 -3.5625 1.0625 C-1.06645115 1.29633621 -1.06645115 1.29633621 0 0 Z " fill="#E1E25C" transform="translate(77,272)"/>
<path d="M0 0 C2.54764436 1.27382218 3.5399926 2.56665433 5 5 C5 8.31306713 3.73243028 9.28714799 1.4375 11.75 C0.2309375 12.86375 0.2309375 12.86375 -1 14 C-0.690625 13.443125 -0.38125 12.88625 -0.0625 12.3125 C1.05761821 9.87459567 1.56037364 7.63775814 2 5 C-2.77676569 5.31990429 -2.77676569 5.31990429 -6.875 7.5 C-12.61507714 11.55181916 -22.77212662 10.12092148 -29.5625 10.0625 C-30.57119141 10.05798828 -31.57988281 10.05347656 -32.61914062 10.04882812 C-35.07949147 10.03716769 -37.53971239 10.02080378 -40 10 C-35.74858738 11.96016923 -32.28090823 13.36432135 -27.5625 13.6875 C-26.69753906 13.75324219 -25.83257812 13.81898438 -24.94140625 13.88671875 C-24.30074219 13.92410156 -23.66007812 13.96148437 -23 14 C-23 14.33 -23 14.66 -23 15 C-24.7290774 15.02725341 -26.45828176 15.04650987 -28.1875 15.0625 C-29.63189453 15.07990234 -29.63189453 15.07990234 -31.10546875 15.09765625 C-33.85576513 15.00486622 -36.32479591 14.62111685 -39 14 C-39 13.34 -39 12.68 -39 12 C-41.475 11.01 -41.475 11.01 -44 10 C-44 9.01 -44 8.02 -44 7 C-43.37134033 7.01047363 -42.74268066 7.02094727 -42.0949707 7.03173828 C-20.73680068 8.34998233 -20.73680068 8.34998233 -1.48828125 0.92578125 C-0.99714844 0.62027344 -0.50601563 0.31476563 0 0 Z " fill="#ECEB7C" transform="translate(135,306)"/>
<path d="M0 0 C7.35915493 0.49061033 7.35915493 0.49061033 10.4375 2.9375 C12.9217083 6.21665496 13.11463873 8.05817917 13.0625 12.125 C13.05347656 13.03507813 13.04445313 13.94515625 13.03515625 14.8828125 C13.02355469 15.58148438 13.01195312 16.28015625 13 17 C11.10546875 17.57421875 11.10546875 17.57421875 9 18 C6.94173321 16.55159004 6.12170675 15.60853375 5.625 13.125 C5.09477282 10.69572938 5.09477282 10.69572938 2.5 8.5 C-0.77777778 5.22222222 -0.77777778 5.22222222 -1 2 C-0.67 1.34 -0.34 0.68 0 0 Z " fill="#DAD718" transform="translate(48,190)"/>
<path d="M0 0 C4.02875167 0.58801144 7.72929477 1.72668491 11.58984375 2.99584961 C24.84105906 7.23869466 38.09132897 6.60370198 51.875 6.125 C46.44536686 9.74475543 39.96174931 9.29036605 33.625 9.25 C32.88644775 9.24806641 32.14789551 9.24613281 31.38696289 9.24414062 C25.51350084 9.19809933 19.7084133 8.83055323 13.875 8.125 C13.875 7.465 13.875 6.805 13.875 6.125 C13.29492188 5.98191406 12.71484375 5.83882813 12.1171875 5.69140625 C10.72270747 5.33914213 9.33128679 4.97421314 7.9453125 4.58984375 C3.81669278 3.47063961 0.19295819 2.90910209 -4.125 3.125 C-4.455 5.105 -4.785 7.085 -5.125 9.125 C-4.485625 9.393125 -3.84625 9.66125 -3.1875 9.9375 C-1.125 11.125 -1.125 11.125 -0.125 14.125 C0.535 14.455 1.195 14.785 1.875 15.125 C-2.38705106 14.65143877 -4.41193793 12.27801808 -7.125 9.125 C-8.1875 7.125 -8.1875 7.125 -8.125 5.125 C-6.19862394 0.99705131 -4.43553483 -0.28344523 0 0 Z " fill="#EBE97F" transform="translate(76.125,278.875)"/>
<path d="M0 0 C0.33 0 0.66 0 1 0 C1.06058594 0.66386719 1.12117188 1.32773437 1.18359375 2.01171875 C1.43648477 4.67680101 1.7146632 7.33821532 2 10 C2.103125 10.99 2.20625 11.98 2.3125 13 C2.81142334 15.1915841 2.81142334 15.1915841 5 16.0625 C5.66 16.371875 6.32 16.68125 7 17 C7.75 19.125 7.75 19.125 8 21 C8.8353125 21.0928125 8.8353125 21.0928125 9.6875 21.1875 C12 22 12 22 14.375 24.4375 C18.98374148 28.93650954 23.76482594 29.22587032 29.92578125 29.17578125 C30.73402344 29.15902344 31.54226562 29.14226562 32.375 29.125 C33.62216797 29.11146484 33.62216797 29.11146484 34.89453125 29.09765625 C36.92981337 29.0742622 38.96494564 29.03839725 41 29 C41 28.34 41 27.68 41 27 C41.99 27 42.98 27 44 27 C44 26.34 44 25.68 44 25 C45.65 25 47.3 25 49 25 C45.58410306 29.21963739 40.18050102 30.9388173 35 32 C25.29782113 32.80593179 16.87301353 31.72564744 9.1875 25.4375 C4.06311257 20.45848527 0.40057036 15.15855284 -0.296875 7.91796875 C-0.31054272 5.25618084 -0.2268111 2.65116977 0 0 Z M12 19 C12.33 19.66 12.66 20.32 13 21 C12.34 20.67 11.68 20.34 11 20 C11.33 19.67 11.66 19.34 12 19 Z " fill="#E7E776" transform="translate(77,302)"/>
<path d="M0 0 C0.33 0 0.66 0 1 0 C2.22519161 6.71405004 2.18376448 13.37765345 2.1875 20.1875 C2.19974609 21.34314453 2.21199219 22.49878906 2.22460938 23.68945312 C2.24268636 34.4211539 0.97314144 44.4714692 -2.75 54.5625 C-3.13816895 55.63757813 -3.13816895 55.63757813 -3.53417969 56.734375 C-9.49178686 72.74589343 -9.49178686 72.74589343 -14 75 C-13.67 73.02 -13.34 71.04 -13 69 C-12.34 69 -11.68 69 -11 69 C-11 67.35 -11 65.7 -11 64 C-10.01 64 -9.02 64 -8 64 C-7.67 61.03 -7.34 58.06 -7 55 C-6.34 55 -5.68 55 -5 55 C-5.020625 54.195625 -5.04125 53.39125 -5.0625 52.5625 C-5 50 -5 50 -4 49 C-3.855625 47.906875 -3.71125 46.81375 -3.5625 45.6875 C-3.06628627 42.43454331 -2.45406053 40.81724228 -1 38 C-0.03941085 33.4301415 0.11630475 29.07618713 0.09765625 24.4140625 C0.0962413 23.71227875 0.09482635 23.010495 0.09336853 22.28744507 C0.0878129 20.06658496 0.07526892 17.84582916 0.0625 15.625 C0.05747926 14.11067855 0.05291736 12.5963555 0.04882812 11.08203125 C0.03785807 7.38798748 0.02062449 3.69400394 0 0 Z " fill="#EBE976" transform="translate(220,93)"/>
<path d="M0 0 C-3.48374311 1.93252416 -7.04977934 2.98074405 -10.875 4.0625 C-12.06867188 4.40410156 -13.26234375 4.74570312 -14.4921875 5.09765625 C-20.78684158 6.71688241 -26.60057747 7.15680602 -33.0625 7.125 C-33.85205078 7.12886719 -34.64160156 7.13273437 -35.45507812 7.13671875 C-39.43590915 7.1300451 -43.11455726 6.98504182 -47 6 C-47 5.34 -47 4.68 -47 4 C-51.29 4 -55.58 4 -60 4 C-59 2 -59 2 -56.9921875 1.28125 C-52.8566436 0.89253047 -49.18174555 1.72060526 -45.125 2.5 C-32.36016395 4.71051983 -20.81861992 3.44741028 -8.2421875 0.62109375 C-5.38537388 0.07382463 -2.8945773 -0.12561373 0 0 Z " fill="#E7E571" transform="translate(138,298)"/>
<path d="M0 0 C5.97868139 8.96802208 7.16683356 22.46417932 6 33 C4 35 4 35 1.5 35.3125 C0.675 35.209375 -0.15 35.10625 -1 35 C-3.28062828 31.57905758 -3.21925007 30.31812778 -3.125 26.3125 C-3.10695313 25.31863281 -3.08890625 24.32476562 -3.0703125 23.30078125 C-3.04710938 22.54152344 -3.02390625 21.78226563 -3 21 C-2.34 21.33 -1.68 21.66 -1 22 C-1 25.63 -1 29.26 -1 33 C0.32 33 1.64 33 3 33 C2.88519969 30.14509764 2.75847036 27.2915412 2.625 24.4375 C2.5940625 23.63763672 2.563125 22.83777344 2.53125 22.01367188 C2.28807489 17.04884674 1.45351456 12.78253176 0 8 C-0.21794764 5.28437244 -0.0958736 2.73239755 0 0 Z " fill="#E3E264" transform="translate(68,216)"/>
<path d="M0 0 C0.33 1.65 0.66 3.3 1 5 C-0.41166886 5.98635837 -1.82956184 6.96381255 -3.25 7.9375 C-4.03890625 8.48277344 -4.8278125 9.02804687 -5.640625 9.58984375 C-7.82636993 10.89622441 -9.5153801 11.54980511 -12 12 C-13.48320272 8.16112237 -14.22419163 5.93795909 -13 2 C-4.57142857 -0.28571429 -4.57142857 -0.28571429 0 0 Z " fill="#DAD71E" transform="translate(139,299)"/>
<path d="M0 0 C5.42889629 3.25733778 8.00174239 8.92615961 11.03515625 14.29296875 C12.46497164 16.75578828 12.46497164 16.75578828 15.5 18.5 C13.25 18.875 13.25 18.875 10.5 18.5 C8.1875 15.5 8.1875 15.5 6.5 12.5 C5.51 12.83 4.52 13.16 3.5 13.5 C3.520625 12.5925 3.54125 11.685 3.5625 10.75 C3.5110245 8.07327412 3.2784983 6.03011948 2.5 3.5 C-0.47 3.005 -0.47 3.005 -3.5 2.5 C-3.52714735 4.72909871 -3.54646254 6.95829367 -3.5625 9.1875 C-3.57410156 10.42886719 -3.58570312 11.67023438 -3.59765625 12.94921875 C-3.51415526 15.98531474 -3.12118758 18.54935901 -2.5 21.5 C-2.43540958 23.26977761 -2.41388935 25.04170152 -2.4375 26.8125 C-2.44652344 27.69550781 -2.45554687 28.57851562 -2.46484375 29.48828125 C-2.47644531 30.15214844 -2.48804687 30.81601563 -2.5 31.5 C-4.07120438 28.67151261 -4.81305897 26.37776121 -5.1328125 23.1640625 C-5.25849609 21.93816406 -5.25849609 21.93816406 -5.38671875 20.6875 C-5.46535156 19.841875 -5.54398437 18.99625 -5.625 18.125 C-5.71136719 17.28710938 -5.79773438 16.44921875 -5.88671875 15.5859375 C-6.76670642 6.70225242 -6.76670642 6.70225242 -6.5 2.5 C-4.29397339 -0.11455005 -3.38713737 -0.67742747 0 0 Z " fill="#E9E87D" transform="translate(84.5,146.5)"/>
<path d="M0 0 C0.66 0.33 1.32 0.66 2 1 C-8.90775869 11.41195148 -19.98833019 14.19755243 -34.6875 14.1875 C-35.6583252 14.18814453 -36.62915039 14.18878906 -37.62939453 14.18945312 C-44.60935048 14.13812134 -51.1869902 13.6098251 -58 12 C-58 11.67 -58 11.34 -58 11 C-56.26713745 11.00785522 -56.26713745 11.00785522 -54.49926758 11.01586914 C-50.20353982 11.0340015 -45.90781542 11.04546212 -41.61206055 11.05493164 C-39.75463288 11.05995303 -37.89720915 11.06677141 -36.03979492 11.07543945 C-33.36636379 11.08760117 -30.69298504 11.09325033 -28.01953125 11.09765625 C-27.19226028 11.10281754 -26.36498932 11.10797882 -25.51264954 11.11329651 C-21.5377466 11.1136812 -17.88043167 10.98980119 -14 10 C-14 9.34 -14 8.68 -14 8 C-13.13375 7.7525 -12.2675 7.505 -11.375 7.25 C-6.92540275 5.60200102 -3.35658348 3.35658348 0 0 Z " fill="#EBEA7E" transform="translate(154,250)"/>
<path d="M0 0 C0 0.33 0 0.66 0 1 C-0.98097656 0.97679687 -1.96195313 0.95359375 -2.97265625 0.9296875 C-23.26236199 0.59232897 -42.20287453 4.02126491 -60 14 C-60.33 13.01 -60.66 12.02 -61 11 C-59.35 10.67 -57.7 10.34 -56 10 C-55.67 9.01 -55.34 8.02 -55 7 C-53.35 7 -51.7 7 -50 7 C-50 6.34 -50 5.68 -50 5 C-45.71 4.34 -41.42 3.68 -37 3 C-37 2.34 -37 1.68 -37 1 C-9.8260274 -2.18356164 -9.8260274 -2.18356164 0 0 Z " fill="#ECEB80" transform="translate(126,14)"/>
<path d="M0 0 C1.87172476 3.33562656 2.72978514 6.59410754 3.5859375 10.3125 C3.87726563 11.55386719 4.16859375 12.79523438 4.46875 14.07421875 C4.77147675 15.3826638 5.07355743 16.6912585 5.375 18 C7.28866682 26.3066688 9.30681998 34.40578568 12.25244141 42.4140625 C13.02162631 45.07480923 13.14103884 47.24632542 13 50 C12.67 48.68 12.34 47.36 12 46 C11.01 46 10.02 46 9 46 C9 43.03 9 40.06 9 37 C8.34 37 7.68 37 7 37 C5.22354961 33.07854104 4.56013994 29.51548518 4.0625 25.25 C3.39874065 20.20858968 2.41707896 15.72775037 0.66796875 10.96875 C-0.34903067 7.97127803 -0.74258667 5.15331326 -1 2 C-0.67 1.34 -0.34 0.68 0 0 Z " fill="#EFEC8B" transform="translate(92,188)"/>
<path d="M0 0 C0.02725341 1.7290774 0.04650987 3.45828176 0.0625 5.1875 C0.07410156 6.15042969 0.08570313 7.11335937 0.09765625 8.10546875 C0.00486622 10.85576513 -0.37888315 13.32479591 -1 16 C-1.33 16 -1.66 16 -2 16 C-2.495 9.565 -2.495 9.565 -3 3 C-5.23145946 4.41315701 -7.46015955 5.83037642 -9.6875 7.25 C-10.31333984 7.64574219 -10.93917969 8.04148438 -11.58398438 8.44921875 C-15.23387949 10.78056537 -18.66671295 13.22119856 -22 16 C-22.66 15.67 -23.32 15.34 -24 15 C-23.34 14.649375 -22.68 14.29875 -22 13.9375 C-19.58896039 12.03442858 -19.58896039 12.03442858 -19.75 8.3125 C-19.87375 6.6728125 -19.87375 6.6728125 -20 5 C-17.69 5.66 -15.38 6.32 -13 7 C-13 6.34 -13 5.68 -13 5 C-12.34 5 -11.68 5 -11 5 C-11 4.34 -11 3.68 -11 3 C-4.5 0 -4.5 0 0 0 Z " fill="#E5E25B" transform="translate(134,154)"/>
<path d="M0 0 C1.50275341 3.00550681 1.58765005 4.66998307 1 8 C-3.37054784 12.06404189 -9.36843427 14.31053028 -15 16 C-17.234375 15.5703125 -17.234375 15.5703125 -19 15 C-18.21753906 14.73445313 -17.43507812 14.46890625 -16.62890625 14.1953125 C-15.61699219 13.84210938 -14.60507813 13.48890625 -13.5625 13.125 C-12.55316406 12.77695312 -11.54382813 12.42890625 -10.50390625 12.0703125 C-7.86028249 11.25944907 -7.86028249 11.25944907 -7 9 C-6.34 9 -5.68 9 -5 9 C-4.67 7.68 -4.34 6.36 -4 5 C-4 5.66 -4 6.32 -4 7 C-3.34 7 -2.68 7 -2 7 C-2 5.35 -2 3.7 -2 2 C-2.99 2.33 -3.98 2.66 -5 3 C-7.39490986 3.06970052 -9.79167691 3.08448003 -12.1875 3.0625 C-13.45980469 3.05347656 -14.73210937 3.04445313 -16.04296875 3.03515625 C-17.50669922 3.01775391 -17.50669922 3.01775391 -19 3 C-15.88069175 1.2564244 -13.00889549 0.45354822 -9.5 -0.1875 C-8.5615625 -0.36667969 -7.623125 -0.54585938 -6.65625 -0.73046875 C-4.06262702 -0.9936452 -2.41512387 -0.9495828 0 0 Z " fill="#E7E76D" transform="translate(148,282)"/>
<path d="M0 0 C1.25787035 3.8586023 0.41330078 5.98804669 -1.1015625 9.7265625 C-3.72212563 16.35772661 -5.34345294 22.90929177 -6 30 C-6.66 30 -7.32 30 -8 30 C-8.103125 30.721875 -8.20625 31.44375 -8.3125 32.1875 C-9.07346409 35.30053492 -10.0909017 37.43005998 -12 40 C-12.99 40 -13.98 40 -15 40 C-13.897913 36.19279037 -12.4246675 32.85254171 -10.5625 29.375 C-8.16927456 24.71414113 -6.96803025 20.20814043 -5.82421875 15.1171875 C-4.43407952 9.85969413 -2.22151973 4.95232067 0 0 Z " fill="#E1DE4B" transform="translate(165,200)"/>
<path d="M0 0 C2 2 2 2 2 4.375 C0.54053898 8.20608519 -1.38389262 9.15907261 -5 11 C-7.70225245 11.58217288 -10.22852238 11.80886361 -13 12 C-13 11.34 -13 10.68 -13 10 C-11.56445975 9.49440092 -10.1264798 8.9957251 -8.6875 8.5 C-7.88699219 8.2215625 -7.08648437 7.943125 -6.26171875 7.65625 C-4 7 -4 7 -1 7 C-1.33 5.68 -1.66 4.36 -2 3 C-8.93 3 -15.86 3 -23 3 C-23 2.67 -23 2.34 -23 2 C-20.1058144 1.46804688 -17.21028485 0.94913665 -14.3125 0.4375 C-13.49587891 0.28603516 -12.67925781 0.13457031 -11.83789062 -0.02148438 C-3.97396507 -1.39050785 -3.97396507 -1.39050785 0 0 Z " fill="#E5E671" transform="translate(157,264)"/>
<path d="M0 0 C1.32 0.33 2.64 0.66 4 1 C4.02485795 6.26529604 4.04293442 11.53055735 4.05493164 16.79589844 C4.05993714 18.58431596 4.06674355 20.37272943 4.07543945 22.16113281 C4.08767166 24.74284874 4.09326628 27.32451021 4.09765625 29.90625 C4.10281754 30.69616333 4.10797882 31.48607666 4.11329651 32.29992676 C4.11379207 37.28751558 3.71069415 42.06202819 3 47 C2.67 47 2.34 47 2 47 C1.97494385 45.68281982 1.9498877 44.36563965 1.92407227 43.00854492 C1.82999118 38.12758438 1.72977208 33.24676592 1.62768555 28.3659668 C1.58433936 26.2523938 1.54266406 24.13878586 1.50268555 22.02514648 C1.44497551 18.98931336 1.38128299 15.95365611 1.31640625 12.91796875 C1.29969376 11.97100632 1.28298126 11.02404388 1.26576233 10.04838562 C1.24581711 9.16769913 1.22587189 8.28701263 1.20532227 7.37963867 C1.18977798 6.60464523 1.1742337 5.82965179 1.15821838 5.03117371 C1.06644623 2.79667507 1.06644623 2.79667507 0 0 Z " fill="#D5D429" transform="translate(137,147)"/>
<path d="M0 0 C10.21424973 5.59483228 17.60350019 15.51812969 24 25 C24.45503906 25.66773437 24.91007812 26.33546875 25.37890625 27.0234375 C26.26593602 28.34007402 27.13606281 29.66809683 28 31 C27.67 31.66 27.34 32.32 27 33 C26.01 32.34 25.02 31.68 24 31 C24 30.34 24 29.68 24 29 C22.68 29 21.36 29 20 29 C20.103125 28.071875 20.20625 27.14375 20.3125 26.1875 C20.209375 25.135625 20.10625 24.08375 20 23 C18.35666496 21.96210419 16.68756133 20.96432076 15 20 C14 17 14 17 13 14 C10.53673288 12.3553326 10.53673288 12.3553326 8 11 C7.30251417 9.68252676 6.63040043 8.35085807 6 7 C5.01 6.67 4.02 6.34 3 6 C2.67 5.01 2.34 4.02 2 3 C1.34 2.67 0.68 2.34 0 2 C0 1.34 0 0.68 0 0 Z " fill="#E1E154" transform="translate(180,27)"/>
<path d="M0 0 C0.33 0 0.66 0 1 0 C1.16378289 3.9307894 1.06539957 6.76497031 0 10.59375 C-1.30053317 15.569703 -1.22161442 20.38686776 -1.125 25.5 C-1.11597656 26.4178125 -1.10695312 27.335625 -1.09765625 28.28125 C-1.07432432 30.52111556 -1.04159235 32.76041183 -1 35 C-0.67 35 -0.34 35 0 35 C0.06058594 35.71027344 0.12117187 36.42054687 0.18359375 37.15234375 C0.26738281 38.07144531 0.35117188 38.99054688 0.4375 39.9375 C0.51871094 40.85402344 0.59992187 41.77054688 0.68359375 42.71484375 C0.76044976 44.96159732 0.76044976 44.96159732 2 46 C2.23363881 47.84891946 2.41303635 49.70488031 2.5625 51.5625 C2.64628906 52.57441406 2.73007813 53.58632812 2.81640625 54.62890625 C2.87699219 55.41136719 2.93757812 56.19382813 3 57 C-3.92102411 50.07897589 -3.4143775 35.47710596 -3.4375 26.375 C-3.37320457 17.2532571 -2.63812204 8.77803703 0 0 Z " fill="#F4F294" transform="translate(5,87)"/>
<path d="M0 0 C0 0.66 0 1.32 0 2 C-6.96187618 4.14537719 -13.43512419 4.26803486 -20.6875 4.1875 C-21.80189453 4.18685547 -22.91628906 4.18621094 -24.06445312 4.18554688 C-28.86185597 4.15967712 -33.30650406 4.07095247 -38 3 C-38 2.34 -38 1.68 -38 1 C-37.07888428 1.00785522 -37.07888428 1.00785522 -36.13916016 1.01586914 C-33.30111759 1.03692129 -30.46309154 1.04974863 -27.625 1.0625 C-26.65949219 1.07087891 -25.69398437 1.07925781 -24.69921875 1.08789062 C-19.12049428 1.10661118 -13.67505676 0.8719951 -8.1328125 0.22265625 C-5.41509188 -0.06106184 -2.72961178 -0.07183189 0 0 Z " fill="#E3E160" transform="translate(134,267)"/>
<path d="M0 0 C0.33 0 0.66 0 1 0 C1 11.22 1 22.44 1 34 C0.34 34 -0.32 34 -1 34 C-1 32.35 -1 30.7 -1 29 C-1.66 29 -2.32 29 -3 29 C-3.08845016 25.85434954 -3.14086835 22.70902625 -3.1875 19.5625 C-3.21263672 18.68400391 -3.23777344 17.80550781 -3.26367188 16.90039062 C-3.33209102 10.71986094 -2.32816113 5.72459913 0 0 Z " fill="#E6E56C" transform="translate(14,96)"/>
<path d="M0 0 C11.62156953 1.8406169 25.99813803 9.37681698 34 18 C30.625 17.75 30.625 17.75 27 17 C25.5625 14.9375 25.5625 14.9375 25 13 C24.01 13 23.02 13 22 13 C22 12.34 22 11.68 22 11 C21.01 11 20.02 11 19 11 C19 10.34 19 9.68 19 9 C18.071875 8.855625 17.14375 8.71125 16.1875 8.5625 C13 8 13 8 10 7 C10 6.34 10 5.68 10 5 C8.68 5 7.36 5 6 5 C6 4.34 6 3.68 6 3 C4.02 2.34 2.04 1.68 0 1 C0 0.67 0 0.34 0 0 Z " fill="#E2E15D" transform="translate(142,6)"/>
<path d="M0 0 C3.21587688 0.81389907 6.31567983 1.88308771 9.4375 3 C10.26443359 3.28617187 11.09136719 3.57234375 11.94335938 3.8671875 C13.96558968 4.56853905 15.98328428 5.28294552 18 6 C18 6.33 18 6.66 18 7 C12.22850374 7.20612487 7.52429247 6.74451341 2 5 C1.67 4.34 1.34 3.68 1 3 C-2.3 3 -5.6 3 -9 3 C-7.94124926 6.40312738 -6.99097846 9.01353231 -5 12 C-8.16115776 10.63016497 -8.9927092 10.0109362 -11 7 C-10.8125 4.4375 -10.8125 4.4375 -10 2 C-6.19991747 -0.53338835 -4.53205823 -0.36292759 0 0 Z " fill="#F0EF9B" transform="translate(76,261)"/>
<path d="M0 0 C0 0.33 0 0.66 0 1 C-7.2245509 1.25349301 -7.2245509 1.25349301 -11.03515625 0.0078125 C-16.21946707 -1.55602975 -21.50700912 -1.28971387 -26.875 -1.25 C-27.91269531 -1.25773438 -28.95039062 -1.26546875 -30.01953125 -1.2734375 C-35.62297011 -1.25930525 -40.66876789 -0.87995989 -46.06689453 0.66894531 C-48.32278591 1.05527882 -49.83769293 0.68880186 -52 0 C-34.54965838 -4.76736137 -17.44300614 -5.43811368 0 0 Z " fill="#ECEA81" transform="translate(139,5)"/>
<path d="M0 0 C0 0.99 0 1.98 0 3 C-1.98 3.33 -3.96 3.66 -6 4 C-6 4.66 -6 5.32 -6 6 C-11.50441404 7.83480468 -16.61762431 8.21915692 -22.375 8.25 C-23.44621094 8.26353516 -23.44621094 8.26353516 -24.5390625 8.27734375 C-29.7525042 8.2474958 -29.7525042 8.2474958 -32 6 C-30.45892578 5.94392578 -30.45892578 5.94392578 -28.88671875 5.88671875 C-19.24669094 5.45886892 -8.48352696 0 0 0 Z " fill="#E3E261" transform="translate(144,246)"/>
<path d="M0 0 C0 0.99 0 1.98 0 3 C-2.97 2.67 -5.94 2.34 -9 2 C-9.33 3.32 -9.66 4.64 -10 6 C-11.65 6 -13.3 6 -15 6 C-15 6.66 -15 7.32 -15 8 C-21.625 10 -21.625 10 -25 10 C-17.43169347 3.440801 -10.12159708 -1.71876177 0 0 Z " fill="#E6E671" transform="translate(139,145)"/>
<path d="M0 0 C0.33 0 0.66 0 1 0 C1.06058594 0.66386719 1.12117188 1.32773437 1.18359375 2.01171875 C1.43648477 4.67680101 1.7146632 7.33821532 2 10 C2.103125 10.99 2.20625 11.98 2.3125 13 C2.81142334 15.1915841 2.81142334 15.1915841 5 16.0625 C5.66 16.371875 6.32 16.68125 7 17 C7.75 19.125 7.75 19.125 8 21 C8.61875 21.0825 9.2375 21.165 9.875 21.25 C12 22 12 22 13.25 24.0625 C13.4975 24.701875 13.745 25.34125 14 26 C11.26316383 25.91950482 9.50656279 25.44704167 7.4375 23.62109375 C0.84212546 16.2507627 -0.47269542 9.68150248 0 0 Z M12 19 C12.33 19.66 12.66 20.32 13 21 C12.34 20.67 11.68 20.34 11 20 C11.33 19.67 11.66 19.34 12 19 Z " fill="#E3E362" transform="translate(77,302)"/>
<path d="M0 0 C2.77217867 0.28171329 5.54230241 0.57491392 8.3125 0.875 C9.09818359 0.95363281 9.88386719 1.03226563 10.69335938 1.11328125 C11.45068359 1.19707031 12.20800781 1.28085938 12.98828125 1.3671875 C13.68477783 1.44050293 14.38127441 1.51381836 15.09887695 1.58935547 C17 2 17 2 20 4 C22.58885171 4.29991069 25.09149082 4.50865225 27.6875 4.625 C28.7403418 4.68300781 28.7403418 4.68300781 29.81445312 4.7421875 C31.54254655 4.8362334 33.27123675 4.9191968 35 5 C35 5.33 35 5.66 35 6 C32.02077407 6.02683987 29.04178705 6.04676037 26.0625 6.0625 C24.78729492 6.07506836 24.78729492 6.07506836 23.48632812 6.08789062 C22.67744141 6.09111328 21.86855469 6.09433594 21.03515625 6.09765625 C20.2862915 6.10289307 19.53742676 6.10812988 18.76586914 6.11352539 C17 6 17 6 16 5 C12.89850354 4.71599669 9.79707354 4.5512529 6.6875 4.37890625 C5.800625 4.25386719 4.91375 4.12882813 4 4 C3.67 3.34 3.34 2.68 3 2 C2.01 1.34 1.02 0.68 0 0 Z " fill="#E0DE48" transform="translate(94,249)"/>
<path d="M0 0 C5.08467352 0.35066714 9.75704803 1.79481151 14.625 3.25 C14.625 3.58 14.625 3.91 14.625 4.25 C10.665 4.25 6.705 4.25 2.625 4.25 C2.625 3.26 2.625 2.27 2.625 1.25 C1.305 1.58 -0.015 1.91 -1.375 2.25 C-1.705 4.23 -2.035 6.21 -2.375 8.25 C0.595 8.745 0.595 8.745 3.625 9.25 C3.955 10.24 4.285 11.23 4.625 12.25 C-0.77829973 11.76970669 -0.77829973 11.76970669 -3.3125 9.5625 C-4.74696808 6.44042242 -4.24574094 4.51527853 -3.375 1.25 C-2.375 0.25 -2.375 0.25 0 0 Z " fill="#ECEC82" transform="translate(79.375,244.75)"/>
<path d="M0 0 C0.6875 1.8125 0.6875 1.8125 1 4 C-0.25 5.375 -0.25 5.375 -2 7 C-3.04622875 8.97620986 -4.05439935 10.9737129 -5 13 C-5.66 13 -6.32 13 -7 13 C-7.09152344 13.60328125 -7.18304688 14.2065625 -7.27734375 14.828125 C-8.17720492 17.53257263 -9.20702019 18.2082314 -11.5625 19.75 C-12.20316406 20.17796875 -12.84382812 20.6059375 -13.50390625 21.046875 C-13.99761719 21.36140625 -14.49132812 21.6759375 -15 22 C-13.35920526 18.31262258 -11.07281331 15.32098216 -8.625 12.125 C-5.59570405 8.16361298 -2.7268813 4.17125678 0 0 Z " fill="#E4E461" transform="translate(192,161)"/>
<path d="M0 0 C0.55171875 0.49113281 1.1034375 0.98226562 1.671875 1.48828125 C4.46370069 3.30109424 5.96185741 3.3172951 9.25 3.1875 C10.58804688 3.14689453 10.58804688 3.14689453 11.953125 3.10546875 C12.96632813 3.05326172 12.96632813 3.05326172 14 3 C14 2.67 14 2.34 14 2 C15.98 2 17.96 2 20 2 C16.59866997 5.5147077 15.24603724 6.89616356 10.25 7.3125 C5.87966603 7.26464963 3.32041293 5.90536131 0 3 C0 2.01 0 1.02 0 0 Z " fill="#E7E35E" transform="translate(89,169)"/>
<path d="M0 0 C0.33 0 0.66 0 1 0 C1.02888146 3.31248187 1.04675799 6.62493167 1.0625 9.9375 C1.07087891 10.88302734 1.07925781 11.82855469 1.08789062 12.80273438 C1.09111328 13.70185547 1.09433594 14.60097656 1.09765625 15.52734375 C1.10289307 16.35999756 1.10812988 17.19265137 1.11352539 18.05053711 C1 20 1 20 0 21 C-0.23427778 23.01594582 -0.41336124 25.038474 -0.5625 27.0625 C-0.64628906 28.16722656 -0.73007813 29.27195313 -0.81640625 30.41015625 C-0.87699219 31.26480469 -0.93757812 32.11945313 -1 33 C-1.66 33 -2.32 33 -3 33 C-2.38052288 21.94722405 -1.29690981 10.99225502 0 0 Z " fill="#ECEC89" transform="translate(131,174)"/>
<path d="M0 0 C0.33 1.32 0.66 2.64 1 4 C0.34 4 -0.32 4 -1 4 C-1.1546875 4.99 -1.1546875 4.99 -1.3125 6 C-2.19213564 9.83841009 -3.56969896 13.33096691 -5 17 C-5.66 17 -6.32 17 -7 17 C-7.12375 17.721875 -7.2475 18.44375 -7.375 19.1875 C-7.9904931 21.95721894 -8.88444374 24.3970354 -10 27 C-11.33995711 22.98012868 -9.93720197 20.59542294 -8.375 16.875 C-8.10155762 16.20718506 -7.82811523 15.53937012 -7.54638672 14.85131836 C-5.39071027 9.68930332 -2.92406268 4.77424394 0 0 Z " fill="#EDEB83" transform="translate(17,59)"/>
<path d="M0 0 C0.99 0.33 1.98 0.66 3 1 C3.06058594 1.60328125 3.12117188 2.2065625 3.18359375 2.828125 C3.26738281 3.62734375 3.35117188 4.4265625 3.4375 5.25 C3.55931641 6.43335938 3.55931641 6.43335938 3.68359375 7.640625 C3.94181067 9.95379701 3.94181067 9.95379701 4.53125 11.96875 C5.10250063 14.4441694 5.09588846 16.7124773 5.0625 19.25 C5.05347656 20.14203125 5.04445313 21.0340625 5.03515625 21.953125 C5.02355469 22.62859375 5.01195313 23.3040625 5 24 C2.75702803 20.25521202 2.12685473 16.23493687 1.375 12 C1.2409375 11.2884375 1.106875 10.576875 0.96875 9.84375 C0.35441287 6.48370201 0 3.42864709 0 0 Z " fill="#E7E56F" transform="translate(82,180)"/>
<path d="M0 0 C1.98 0 3.96 0 6 0 C1.84755501 4.49848208 -3.1379149 9.04597163 -9 11 C-9 9.68 -9 8.36 -9 7 C-7.68 7 -6.36 7 -5 7 C-5 6.01 -5 5.02 -5 4 C-4.01 4 -3.02 4 -2 4 C-2 3.34 -2 2.68 -2 2 C-1.34 2 -0.68 2 0 2 C0 1.34 0 0.68 0 0 Z " fill="#E4E25F" transform="translate(57,29)"/>
<path d="M0 0 C2.64 0 5.28 0 8 0 C8 0.66 8 1.32 8 2 C21.86 2.99 21.86 2.99 36 4 C36 4.33 36 4.66 36 5 C11.02839644 5.37332962 11.02839644 5.37332962 0 1 C0 0.67 0 0.34 0 0 Z " fill="#D3D328" transform="translate(78,294)"/>
<path d="M0 0 C4.55451723 3.82579448 8.84530689 7.74397292 13 12 C12.67 12.66 12.34 13.32 12 14 C11.2575 13.319375 10.515 12.63875 9.75 11.9375 C8.8425 11.298125 7.935 10.65875 7 10 C5.68 10.33 4.36 10.66 3 11 C2.01 7.37 1.02 3.74 0 0 Z " fill="#E8E56A" transform="translate(39,171)"/>
<path d="M0 0 C0.33 0.99 0.66 1.98 1 3 C0.34 4.32 -0.32 5.64 -1 7 C-5.62 7 -10.24 7 -15 7 C-11.77260428 5.38630214 -8.53630285 3.86166081 -5.25 2.375 C-4.26515625 1.92898438 -3.2803125 1.48296875 -2.265625 1.0234375 C-1.51796875 0.68570312 -0.7703125 0.34796875 0 0 Z " fill="#E1E049" transform="translate(127,313)"/>
<path d="M0 0 C0.33 0.66 0.66 1.32 1 2 C1.99 2.33 2.98 2.66 4 3 C4 4.32 4 5.64 4 7 C4.66 7 5.32 7 6 7 C6 10.96 6 14.92 6 19 C4.31697161 15.63394322 3.0639828 12.49123748 1.875 8.9375 C1.52179687 7.89464844 1.16859375 6.85179687 0.8046875 5.77734375 C0 3 0 3 0 0 Z " fill="#E9E874" transform="translate(59,218)"/>
<path d="M0 0 C1.25431096 3.84768362 0.42789766 5.96930527 -1.09765625 9.6953125 C-2.66916824 13.70913099 -3.80429188 17.86166267 -5 22 C-5.66 22 -6.32 22 -7 22 C-6.44147333 16.5632024 -5.06042383 12.0816633 -2.9375 7.0625 C-2.65583984 6.37865234 -2.37417969 5.69480469 -2.08398438 4.99023438 C-1.3964595 3.32386054 -0.69923825 1.66149273 0 0 Z " fill="#EBEB83" transform="translate(165,200)"/>
<path d="M0 0 C2.05078125 0.03255208 4.1015625 0.06510417 6.15234375 0.09765625 C1.69421983 2.32671821 -0.87168112 3.21903931 -5.94921875 3.1953125 C-7.1609375 3.19208984 -8.37265625 3.18886719 -9.62109375 3.18554688 C-10.89210938 3.17716797 -12.163125 3.16878906 -13.47265625 3.16015625 C-14.75140625 3.15564453 -16.03015625 3.15113281 -17.34765625 3.14648438 C-20.51436917 3.13466828 -23.68098981 3.1181944 -26.84765625 3.09765625 C-26.84765625 2.76765625 -26.84765625 2.43765625 -26.84765625 2.09765625 C-26.12586182 2.0726001 -25.40406738 2.04754395 -24.66040039 2.02172852 C-21.41012125 1.90614323 -18.16015937 1.78324851 -14.91015625 1.66015625 C-13.77384766 1.62083984 -12.63753906 1.58152344 -11.46679688 1.54101562 C-9.84741211 1.47817383 -9.84741211 1.47817383 -8.1953125 1.4140625 C-7.19508057 1.37740479 -6.19484863 1.34074707 -5.16430664 1.30297852 C-2.65054582 1.08018656 -2.37766255 0.12566927 0 0 Z " fill="#D7D315" transform="translate(128.84765625,294.90234375)"/>
<path d="M0 0 C0.99 0.33 1.98 0.66 3 1 C2.67 1.99 2.34 2.98 2 4 C2.99 4 3.98 4 5 4 C5 4.66 5 5.32 5 6 C7.97 6.495 7.97 6.495 11 7 C8.17496557 8.12864571 6.98366296 7.99492545 4.01953125 7.07421875 C2.96121094 6.61660156 1.90289062 6.15898437 0.8125 5.6875 C-0.78658203 5.01267578 -0.78658203 5.01267578 -2.41796875 4.32421875 C-5 3 -5 3 -6 1 C-4.7934375 1.0309375 -4.7934375 1.0309375 -3.5625 1.0625 C-1.06645115 1.29633621 -1.06645115 1.29633621 0 0 Z " fill="#E6E463" transform="translate(77,272)"/>
<path d="M0 0 C2.5 1.25 2.5 1.25 5 3 C5 4.32 5 5.64 5 7 C5.66 7.33 6.32 7.66 7 8 C7.33333333 9.33333333 7.66666667 10.66666667 8 12 C8.66 12.33 9.32 12.66 10 13 C10 15.31 10 17.62 10 20 C7.8583899 16.78758486 6.15145449 13.44911254 4.4375 10 C4.12103516 9.3709375 3.80457031 8.741875 3.47851562 8.09375 C2.14433738 5.41972822 0.94641411 2.83924233 0 0 Z " fill="#EBE871" transform="translate(49,198)"/>
<path d="M0 0 C2.31 0.66 4.62 1.32 7 2 C5.83709195 5.48872415 4.86032391 6.09976864 1.9375 8.1875 C1.20402344 8.71730469 0.47054687 9.24710938 -0.28515625 9.79296875 C-0.85105469 10.19128906 -1.41695313 10.58960938 -2 11 C-2.66 10.67 -3.32 10.34 -4 10 C-3.34 9.649375 -2.68 9.29875 -2 8.9375 C0.41103961 7.03442858 0.41103961 7.03442858 0.25 3.3125 C0.12625 1.6728125 0.12625 1.6728125 0 0 Z " fill="#E5E255" transform="translate(114,159)"/>
<path d="M0 0 C4.26763313 2.2859534 7.47663624 5.23583857 10.8125 8.6875 C11.31458984 9.19861328 11.81667969 9.70972656 12.33398438 10.23632812 C13.56063509 11.48634362 14.78097491 12.7425468 16 14 C15.67 14.66 15.34 15.32 15 16 C13.50260417 14.69791667 12.00520833 13.39583333 10.5078125 12.09375 C9.04063579 10.80427542 9.04063579 10.80427542 7 11 C6.896875 10.360625 6.79375 9.72125 6.6875 9.0625 C6.460625 8.381875 6.23375 7.70125 6 7 C5.01 6.67 4.02 6.34 3 6 C2.67 5.01 2.34 4.02 2 3 C1.34 2.67 0.68 2.34 0 2 C0 1.34 0 0.68 0 0 Z " fill="#EDEB7F" transform="translate(180,27)"/>
<path d="M0 0 C0.556875 0.28875 1.11375 0.5775 1.6875 0.875 C3.98635455 2.05918647 3.98635455 2.05918647 6.5 2.8125 C9.70501085 4.33488015 11.14150312 5.99781273 13 9 C12.6015625 11.1640625 12.6015625 11.1640625 12 13 C9.99698146 11.0238076 7.99750133 9.04425526 6 7.0625 C5.42765625 6.49853516 4.8553125 5.93457031 4.265625 5.35351562 C2.82474495 3.92121224 1.41012857 2.46258871 0 1 C0 0.67 0 0.34 0 0 Z " fill="#E8E767" transform="translate(28,175)"/>
<path d="M0 0 C0.33 0.66 0.66 1.32 1 2 C0.34 2 -0.32 2 -1 2 C-1.268125 2.639375 -1.53625 3.27875 -1.8125 3.9375 C-3 6 -3 6 -6 7 C-6.73323796 9.01508358 -6.73323796 9.01508358 -7 11 C-8.65 11 -10.3 11 -12 11 C-10.68774191 7.06322574 -8.8038606 6.1728218 -5.4375 3.8125 C-4.42558594 3.09707031 -3.41367187 2.38164062 -2.37109375 1.64453125 C-1.58863281 1.10183594 -0.80617188 0.55914063 0 0 Z " fill="#E5E565" transform="translate(52,22)"/>
<path d="M0 0 C0.33 0 0.66 0 1 0 C1.02685412 2.31243792 1.04632841 4.6249627 1.0625 6.9375 C1.07410156 8.22527344 1.08570313 9.51304687 1.09765625 10.83984375 C1 14 1 14 0 15 C-0.39943176 17.52195967 -0.75079848 20.02963656 -1.0625 22.5625 C-1.15337891 23.27341797 -1.24425781 23.98433594 -1.33789062 24.71679688 C-1.56239503 26.47738403 -1.78168397 28.23863478 -2 30 C-2.33 30 -2.66 30 -3 30 C-2.505 21.09 -2.505 21.09 -2 12 C-1.34 12 -0.68 12 0 12 C0 8.04 0 4.08 0 0 Z " fill="#D6D62F" transform="translate(130,195)"/>
<path d="M0 0 C2.38494054 3.17992072 3.78903422 5.42390466 5.25 9 C5.60578125 9.845625 5.9615625 10.69125 6.328125 11.5625 C7.05204912 14.18882935 6.9128421 15.47212957 6 18 C5.67 16.02 5.34 14.04 5 12 C4.34 12 3.68 12 3 12 C3 11.34 3 10.68 3 10 C2.34 10 1.68 10 1 10 C0.67 6.7 0.34 3.4 0 0 Z " fill="#E9E875" transform="translate(210,64)"/>
<path d="M0 0 C-0.99 0.33 -1.98 0.66 -3 1 C-3 1.66 -3 2.32 -3 3 C-7.29 3 -11.58 3 -16 3 C-13.40308015 0.40308015 -11.59611684 0.38736002 -8 -0.1875 C-6.9275 -0.36667969 -5.855 -0.54585938 -4.75 -0.73046875 C-2 -1 -2 -1 0 0 Z " fill="#E0DD46" transform="translate(93,6)"/>
<path d="M0 0 C0.99 0.33 1.98 0.66 3 1 C4.09765625 3.46875 4.09765625 3.46875 5.0625 6.5 C5.65638257 8.35081477 6.29245041 10.18958972 7 12 C7.66 12.33 8.32 12.66 9 13 C9 14.65 9 16.3 9 18 C4.72776184 13.25306871 0 6.56573109 0 0 Z " fill="#EDEA88" transform="translate(8,144)"/>
<path d="M0 0 C0.66 0 1.32 0 2 0 C2 1.98 2 3.96 2 6 C2.639375 6.268125 3.27875 6.53625 3.9375 6.8125 C6 8 6 8 7 11 C7.66 11.33 8.32 11.66 9 12 C4.73794894 11.52643877 2.71306207 9.15301808 0 6 C-0.875 3.8125 -0.875 3.8125 -1 2 C-0.67 1.34 -0.34 0.68 0 0 Z " fill="#E7E67D" transform="translate(69,282)"/>
<path d="M0 0 C0 5.75618831 -2.08906838 9.84463515 -6 14 C-6.66 14 -7.32 14 -8 14 C-6.58036591 8.32146365 -3.60636039 4.46825784 0 0 Z " fill="#E8E674" transform="translate(174,186)"/>
<path d="M0 0 C0.99 0.495 0.99 0.495 2 1 C2 1.66 2 2.32 2 3 C1.34 3 0.68 3 0 3 C0 2.01 0 1.02 0 0 Z M-6 2 C-3.03 2.495 -3.03 2.495 0 3 C0 3.66 0 4.32 0 5 C0.99 5.33 1.98 5.66 3 6 C4.39712274 7.95597184 5.73779907 9.95436401 7 12 C3.74035658 10.51222697 1.06830707 8.64333184 -1.75 6.4375 C-2.54921875 5.81746094 -3.3484375 5.19742187 -4.171875 4.55859375 C-4.77515625 4.04425781 -5.3784375 3.52992187 -6 3 C-6 2.67 -6 2.34 -6 2 Z " fill="#E7E567" transform="translate(164,26)"/>
<path d="M0 0 C0.66 0.33 1.32 0.66 2 1 C0.71186658 1.83878455 -0.58063256 2.67086783 -1.875 3.5 C-2.59429687 3.9640625 -3.31359375 4.428125 -4.0546875 4.90625 C-6 6 -6 6 -8 6 C-8 6.66 -8 7.32 -8 8 C-9.98 8 -11.96 8 -14 8 C-11.52010087 5.14181117 -8.86353122 3.80106607 -5.4375 2.25 C-4.46683594 1.80140625 -3.49617188 1.3528125 -2.49609375 0.890625 C-1.67238281 0.59671875 -0.84867188 0.3028125 0 0 Z " fill="#EAE87B" transform="translate(75,9)"/>
<path d="M0 0 C1.32830615 3.98491845 0.23204404 5.40048548 -1.4375 9.1875 C-1.91058594 10.27417969 -2.38367188 11.36085937 -2.87109375 12.48046875 C-3.42990234 13.72763672 -3.42990234 13.72763672 -4 15 C-5.35015859 10.94952424 -4.62084998 8.2079832 -4 4 C-3.34 4 -2.68 4 -2 4 C-2 3.01 -2 2.02 -2 1 C-1.34 0.67 -0.68 0.34 0 0 Z " fill="#E6E568" transform="translate(173,215)"/>
<path d="M0 0 C0.33 0 0.66 0 1 0 C1.06058594 0.71027344 1.12117187 1.42054687 1.18359375 2.15234375 C1.26738281 3.07144531 1.35117188 3.99054688 1.4375 4.9375 C1.51871094 5.85402344 1.59992187 6.77054688 1.68359375 7.71484375 C1.76044976 9.96159732 1.76044976 9.96159732 3 11 C3.23363881 12.84891946 3.41303635 14.70488031 3.5625 16.5625 C3.64628906 17.57441406 3.73007813 18.58632812 3.81640625 19.62890625 C3.90728516 20.80259766 3.90728516 20.80259766 4 22 C0.64101828 18.64101828 0.05411079 15.01078962 -0.1953125 10.3515625 C-0.17210937 9.12179688 -0.14890625 7.89203125 -0.125 6.625 C-0.10695312 5.37976563 -0.08890625 4.13453125 -0.0703125 2.8515625 C-0.04710937 1.91054687 -0.02390625 0.96953125 0 0 Z " fill="#E4E364" transform="translate(4,122)"/>
<path d="M0 0 C8.415 1.98 8.415 1.98 17 4 C17 4.33 17 4.66 17 5 C11.24091942 5.20568145 6.49245937 4.83081979 1 3 C0.67 2.01 0.34 1.02 0 0 Z " fill="#E1E261" transform="translate(77,263)"/>
<path d="M0 0 C0.33 0 0.66 0 1 0 C1.268125 1.134375 1.53625 2.26875 1.8125 3.4375 C2.95849272 8.04620455 4.44306645 12.51603139 6 17 C4.68 16.67 3.36 16.34 2 16 C0.40837921 10.42932723 -0.20674944 5.78898419 0 0 Z " fill="#EAE873" transform="translate(15,130)"/>
<path d="M0 0 C3.32710168 4.99065252 5.58827908 10.92111612 5 17 C4.67 15.68 4.34 14.36 4 13 C3.01 13 2.02 13 1 13 C0.67 8.71 0.34 4.42 0 0 Z " fill="#EBE97E" transform="translate(100,221)"/>
<path d="M0 0 C2.475 0.495 2.475 0.495 5 1 C5.33 2.65 5.66 4.3 6 6 C6.66 6 7.32 6 8 6 C8.33 7.65 8.66 9.3 9 11 C5.36440339 7.56638098 2.63886654 4.2026393 0 0 Z " fill="#E6E773" transform="translate(181,48)"/>
<path d="M0 0 C0.33 0.66 0.66 1.32 1 2 C-0.14453125 4.56640625 -0.14453125 4.56640625 -1.8125 7.5625 C-2.35519531 8.55378906 -2.89789063 9.54507813 -3.45703125 10.56640625 C-5 13 -5 13 -7 14 C-6.67 12.02 -6.34 10.04 -6 8 C-5.34 8 -4.68 8 -4 8 C-4 6.35 -4 4.7 -4 3 C-3.01 3 -2.02 3 -1 3 C-0.67 2.01 -0.34 1.02 0 0 Z " fill="#E9E97B" transform="translate(213,154)"/>
<path d="M0 0 C-0.66 0 -1.32 0 -2 0 C-1.67 1.65 -1.34 3.3 -1 5 C-4.77545388 3.90931332 -7.47043472 3.0916909 -10 0 C-3.375 -1.125 -3.375 -1.125 0 0 Z " fill="#E3E254" transform="translate(155,21)"/>
<path d="M0 0 C7 9.1 7 9.1 7 12 C6.01 12 5.02 12 4 12 C1.3346765 8.8016118 0.0602752 6.81371525 -0.25 2.625 C-0.12625 1.325625 -0.12625 1.325625 0 0 Z " fill="#E6E467" transform="translate(21,147)"/>
<path d="M0 0 C0.66 0 1.32 0 2 0 C2 0.66 2 1.32 2 2 C1.071875 2.680625 1.071875 2.680625 0.125 3.375 C-2.09664825 4.82760042 -2.09664825 4.82760042 -3 7 C-4.22823725 9.45647449 -5.74148125 10.49432083 -8 12 C-8.66 11.67 -9.32 11.34 -10 11 C-8.38150935 9.16053461 -6.75581169 7.32848583 -5.125 5.5 C-4.66480469 4.97535156 -4.20460938 4.45070313 -3.73046875 3.91015625 C-2.52827924 2.56858245 -1.26754054 1.28000815 0 0 Z " fill="#E8E873" transform="translate(38,33)"/>
<path d="M0 0 C1.98 0 3.96 0 6 0 C6 0.66 6 1.32 6 2 C4.25183142 2.50636607 2.50137737 3.00484619 0.75 3.5 C-0.22453125 3.7784375 -1.1990625 4.056875 -2.203125 4.34375 C-5 5 -5 5 -9 5 C-9 4.34 -9 3.68 -9 3 C-4.545 2.505 -4.545 2.505 0 2 C0 1.34 0 0.68 0 0 Z " fill="#E8E877" transform="translate(89,15)"/>
<path d="M0 0 C3.00221784 4.50332676 4.31896025 8.57767579 4 14 C2 13 2 13 0.875 10.9375 C-0.2583306 7.13274727 -0.13434296 3.9631172 0 0 Z " fill="#E9E776" transform="translate(68,216)"/>
<path d="M0 0 C0.33 0 0.66 0 1 0 C0.67 5.28 0.34 10.56 0 16 C-0.99 16 -1.98 16 -3 16 C-2.152874 10.63486869 -1.08318169 5.3212615 0 0 Z " fill="#EBEA7B" transform="translate(205,126)"/>
<path d="M0 0 C2.16874252 0.50603992 3.99967627 0.99983813 6 2 C6 3.32 6 4.64 6 6 C3.03 5.505 3.03 5.505 0 5 C0 3.35 0 1.7 0 0 Z " fill="#D9D315" transform="translate(76,288)"/>
<path d="M0 0 C0.33 0 0.66 0 1 0 C1.44041451 5.37305699 1.44041451 5.37305699 1 8 C-1.5 10 -1.5 10 -4 11 C-3.52269162 9.5410574 -3.04308958 8.08286504 -2.5625 6.625 C-2.29566406 5.81289062 -2.02882812 5.00078125 -1.75390625 4.1640625 C-1 2 -1 2 0 0 Z " fill="#E6E262" transform="translate(158,222)"/>
<path d="M0 0 C0.33 0.66 0.66 1.32 1 2 C-1.31 4.97 -3.62 7.94 -6 11 C-7.33332095 8.3333581 -6.67102033 6.83319697 -6 4 C-4.35 3.67 -2.7 3.34 -1 3 C-0.67 2.01 -0.34 1.02 0 0 Z " fill="#EBE974" transform="translate(203,171)"/>
<path d="M0 0 C2.42102911 1.18098981 3.82068009 2.2331559 5.5625 4.25 C5.2325 4.91 4.9025 5.57 4.5625 6.25 C3.985 5.775625 3.4075 5.30125 2.8125 4.8125 C0.63667916 3.3015133 -0.86352448 2.70963849 -3.4375 2.25 C-3.7675 3.24 -4.0975 4.23 -4.4375 5.25 C-4.4375 3.6 -4.4375 1.95 -4.4375 0.25 C-2.4375 -0.75 -2.4375 -0.75 0 0 Z " fill="#E3E470" transform="translate(84.4375,146.75)"/>
<path d="M0 0 C2.97 0 5.94 0 9 0 C9 0.66 9 1.32 9 2 C10.65 2 12.3 2 14 2 C14 2.33 14 2.66 14 3 C4.58997722 3.3690205 4.58997722 3.3690205 0 1 C0 0.67 0 0.34 0 0 Z " fill="#D6D623" transform="translate(87,268)"/>
<path d="M0 0 C0 0.99 0 1.98 0 3 C-10.37357631 6.44419134 -10.37357631 6.44419134 -16 6 C-16 5.67 -16 5.34 -16 5 C-15.24074219 4.80664062 -14.48148438 4.61328125 -13.69921875 4.4140625 C-12.70535156 4.15367187 -11.71148437 3.89328125 -10.6875 3.625 C-9.70136719 3.36976563 -8.71523437 3.11453125 -7.69921875 2.8515625 C-4.84512368 1.95113888 -2.97356013 0 0 0 Z " fill="#EDEE8D" transform="translate(144,246)"/>
<path d="M0 0 C-1.28813342 0.83878455 -2.58063256 1.67086783 -3.875 2.5 C-4.59429687 2.9640625 -5.31359375 3.428125 -6.0546875 3.90625 C-8 5 -8 5 -10 5 C-10 4.01 -10 3.02 -10 2 C-9.34 2 -8.68 2 -8 2 C-8 1.34 -8 0.68 -8 0 C-4.71303767 -0.79953138 -3.28976808 -1.09658936 0 0 Z " fill="#E8E671" transform="translate(131,157)"/>
<path d="M0 0 C-0.226875 0.9075 -0.45375 1.815 -0.6875 2.75 C-1.32605545 5.99503501 -1.32605545 5.99503501 0.4375 8.375 C0.953125 8.91125 1.46875 9.4475 2 10 C-0.46800047 8.84826645 -2.04783565 7.95216435 -4 6 C-4.125 3.375 -4.125 3.375 -4 1 C-2 0 -2 0 0 0 Z " fill="#D5D420" transform="translate(71,263)"/>
<path d="M0 0 C0.99 0.495 0.99 0.495 2 1 C3.28317892 4.84953676 3.06643637 7.94738135 3 12 C0.05413171 7.58119757 -0.0985616 5.32232661 0 0 Z " fill="#E2E059" transform="translate(97,213)"/>
<path d="M0 0 C3.7952131 1.49097658 5.61042731 3.75700849 8 7 C7.67 7.66 7.34 8.32 7 9 C6.21625 8.360625 5.4325 7.72125 4.625 7.0625 C2.20460719 5.01857687 2.20460719 5.01857687 0 4 C0 2.68 0 1.36 0 0 Z " fill="#E5E568" transform="translate(195,43)"/>
<path d="M0 0 C5.06998019 0.65419099 9.41990777 2.8546409 14 5 C10.71023192 6.09658936 9.28696233 5.79953138 6 5 C6 4.34 6 3.68 6 3 C4.02 2.34 2.04 1.68 0 1 C0 0.67 0 0.34 0 0 Z " fill="#F1EF91" transform="translate(142,6)"/>
<path d="M0 0 C2.68433048 2.45091043 3.91789741 4.28241384 4.09765625 8.04296875 C4.06510417 10.02864583 4.03255208 12.01432292 4 14 C3.67 14 3.34 14 3 14 C2.49528803 12.23050388 1.99639315 10.45934777 1.5 8.6875 C1.2215625 7.70136719 0.943125 6.71523437 0.65625 5.69921875 C0 3 0 3 0 0 Z " fill="#ECEA81" transform="translate(87,204)"/>
<path d="M0 0 C0.33 0 0.66 0 1 0 C1.36717663 7.4659249 1.36717663 7.4659249 -0.375 10 C-2 11 -2 11 -4 11 C-2.7874262 7.27566618 -1.49140021 3.62197194 0 0 Z " fill="#E9E978" transform="translate(201,142)"/>
<path d="M0 0 C2.64 0 5.28 0 8 0 C8 0.66 8 1.32 8 2 C10.97 2.495 10.97 2.495 14 3 C14 3.33 14 3.66 14 4 C9.03083364 3.48594831 4.70973649 2.76615118 0 1 C0 0.67 0 0.34 0 0 Z " fill="#ECEB82" transform="translate(78,294)"/>
<path d="M0 0 C2.32590854 3.63423209 2.16265833 6.77088331 2 11 C0.4375 9.4375 0.4375 9.4375 -1 7 C-0.6875 3.25 -0.6875 3.25 0 0 Z " fill="#E6E164" transform="translate(92,188)"/>
<path d="M0 0 C0.33 0.66 0.66 1.32 1 2 C0.0390625 3.9453125 0.0390625 3.9453125 -1.375 6.125 C-1.83648438 6.84945312 -2.29796875 7.57390625 -2.7734375 8.3203125 C-3.17820312 8.87460938 -3.58296875 9.42890625 -4 10 C-4.33 10 -4.66 10 -5 10 C-5 8.35 -5 6.7 -5 5 C-4.34 5 -3.68 5 -3 5 C-3 4.01 -3 3.02 -3 2 C-2.01 1.34 -1.02 0.68 0 0 Z " fill="#E9E770" transform="translate(28,62)"/>
<path d="M0 0 C0.99 0.33 1.98 0.66 3 1 C0.6875 3.5 0.6875 3.5 -2 6 C-2.99 6 -3.98 6 -5 6 C-4.67 4.68 -4.34 3.36 -4 2 C-2.68 2 -1.36 2 0 2 C0 1.34 0 0.68 0 0 Z " fill="#E7E56E" transform="translate(131,320)"/>
<path d="M0 0 C1.98 0.99 1.98 0.99 4 2 C4.66 1.34 5.32 0.68 6 0 C6 1.65 6 3.3 6 5 C4.68 5.33 3.36 5.66 2 6 C0 3 0 3 0 0 Z " fill="#D9D604" transform="translate(55,202)"/>
<path d="M0 0 C0.33 1.32 0.66 2.64 1 4 C-1.31 5.98 -3.62 7.96 -6 10 C-4.21739173 6.43478346 -2.24007711 3.28544643 0 0 Z " fill="#EBEB80" transform="translate(192,161)"/>
<path d="M0 0 C1.61363928 3.22727857 0.08456242 5.68923051 -1 9 C-1.64775627 10.34262208 -2.3101489 11.67851308 -3 13 C-2.88490339 11.58249437 -2.75746342 10.16598831 -2.625 8.75 C-2.55539062 7.96109375 -2.48578125 7.1721875 -2.4140625 6.359375 C-1.98492887 3.914123 -1.21399362 2.15163097 0 0 Z " fill="#E0E15C" transform="translate(16,87)"/>
<path d="M0 0 C2 4 2 4 1.3125 6.125 C0 8 0 8 -3 10 C-2.01 6.7 -1.02 3.4 0 0 Z " fill="#D8D21E" transform="translate(10,76)"/>
<path d="M0 0 C0.66 0.33 1.32 0.66 2 1 C0.9375 2.9375 0.9375 2.9375 -1 5 C-4.6875 5.75 -4.6875 5.75 -8 6 C-5.63404067 3.38499232 -3.13950774 1.61000397 0 0 Z " fill="#D5D41B" transform="translate(77,9)"/>
<path d="M0 0 C0.33 0.99 0.66 1.98 1 3 C-0.9375 6.1875 -0.9375 6.1875 -3 9 C-3.66 7.68 -4.32 6.36 -5 5 C-4.34 4.34 -3.68 3.68 -3 3 C-2.34 3.33 -1.68 3.66 -1 4 C-0.67 2.68 -0.34 1.36 0 0 Z " fill="#D6D41D" transform="translate(137,311)"/>
<path d="M0 0 C0.99 0.33 1.98 0.66 3 1 C-0.79692186 3.82561627 -3.18569279 5.56638908 -8 5 C-4.93882432 2.37613513 -4.26826873 2 0 2 C0 1.34 0 0.68 0 0 Z " fill="#E8E97D" transform="translate(140,258)"/>
<path d="M0 0 C2.475 0.99 2.475 0.99 5 2 C5 3.98 5 5.96 5 8 C2.27573689 5.64722731 1.1858237 3.37503669 0 0 Z " fill="#E9E973" transform="translate(191,61)"/>
<path d="M0 0 C5.41538462 -0.36923077 5.41538462 -0.36923077 8.375 1.5 C8.91125 1.995 9.4475 2.49 10 3 C3.47692308 3.36923077 3.47692308 3.36923077 1.0625 1.5 C0.5365625 0.7575 0.5365625 0.7575 0 0 Z " fill="#D5D731" transform="translate(136,6)"/>
<path d="M0 0 C-3.53411321 2.12046792 -6.94393835 2.53199289 -11 3 C-8.21756596 -1.17365106 -4.53441502 -0.22300402 0 0 Z " fill="#D7D62D" transform="translate(135,295)"/>
<path d="M0 0 C2.0625 0.4375 2.0625 0.4375 4 1 C3.01 1 2.02 1 1 1 C1.33 2.65 1.66 4.3 2 6 C1.01 6.33 0.02 6.66 -1 7 C-1.04254356 5.00045254 -1.04080783 2.99958364 -1 1 C-0.67 0.67 -0.34 0.34 0 0 Z " fill="#D5D424" transform="translate(78,246)"/>
<path d="M0 0 C2.15377564 2.62198774 3.40072174 4.64404172 4 8 C2.68 7.67 1.36 7.34 0 7 C0 4.69 0 2.38 0 0 Z " fill="#E6E564" transform="translate(61,199)"/>
<path d="M0 0 C1.98 0.66 3.96 1.32 6 2 C6.33 3.98 6.66 5.96 7 8 C4.35247996 5.42215154 2.05567935 3.08351902 0 0 Z " fill="#E9E676" transform="translate(21,167)"/>
<path d="M0 0 C2.64 0 5.28 0 8 0 C4.55549263 2.29633824 2.06187717 2.54016485 -2 3 C-1.34 2.67 -0.68 2.34 0 2 C0 1.34 0 0.68 0 0 Z " fill="#EBEA82" transform="translate(136,276)"/>
<path d="M0 0 C1.65 1.65 3.3 3.3 5 5 C4.67 5.66 4.34 6.32 4 7 C3.01 6.67 2.02 6.34 1 6 C0.67 4.02 0.34 2.04 0 0 Z " fill="#E8E477" transform="translate(52,185)"/>
<path d="M0 0 C1.32 0 2.64 0 4 0 C2.86695008 3.39914975 1.87481525 4.05254451 -1 6 C-1.042721 4.33388095 -1.04063832 2.66617115 -1 1 C-0.67 0.67 -0.34 0.34 0 0 Z " fill="#DBDD3F" transform="translate(202,168)"/>
<path d="M0 0 C1.70840281 1.63412443 2.93453047 2.86906094 4 5 C4.99 5.66 5.98 6.32 7 7 C4.625 7.1875 4.625 7.1875 2 7 C0 4 0 4 0 0 Z " fill="#E8E86F" transform="translate(93,158)"/>
<path d="M0 0 C0.99 0.33 1.98 0.66 3 1 C3.33 3.31 3.66 5.62 4 8 C1 6 1 6 0.3125 2.875 C0.209375 1.92625 0.10625 0.9775 0 0 Z " fill="#E3E465" transform="translate(8,144)"/>
</svg>
